<svg width="22" height="22" viewBox="0 0 22 22" fill="none" xmlns="http://www.w3.org/2000/svg">
    <path fill-rule="evenodd" clip-rule="evenodd" d="M.333 3.055v16.119c0 1.266 1.055 2.302 2.37 2.302h16.593c1.304 0 2.37-1.036 2.37-2.302V3.055c0-1.266-1.066-2.303-2.37-2.303H2.704C1.388.752.334 1.79.334 3.055zM14.556 7.66c0 1.912-1.589 3.454-3.556 3.454S7.444 9.572 7.444 7.66c0-1.91 1.589-3.454 3.556-3.454s3.556 1.543 3.556 3.454zM11 13.417c-2.37 0-7.111 1.236-7.111 3.482v1.123H18.11V16.9c0-2.247-4.74-3.482-7.111-3.482z" fill="#213342"/>
</svg>
