<svg xmlns="http://www.w3.org/2000/svg" xmlns:xlink="http://www.w3.org/1999/xlink" width="12" height="13" viewBox="0 0 12 13">
    <defs>
        <path id="prefix__a" d="M0 0L16 0 16 15.768 0 15.768z"/>
    </defs>
    <g fill="none" fill-rule="evenodd" transform="translate(-1 -1.377)">
        <mask id="prefix__b" fill="#fff">
            <use xlink:href="#prefix__a"/>
        </mask>
        <path fill="#A3C3FF" fill-rule="nonzero" d="M10.227 4.233l.097 7.457c.02 1.434-1.126 2.58-2.56 2.56-1.433-.018-2.609-1.194-2.628-2.628L5.03 3.516c-.012-.895.705-1.612 1.6-1.6.895.012 1.63.748 1.643 1.643l.089 6.809c.005.357-.283.645-.64.64-.357-.005-.652-.3-.657-.657l-.08-6.16-.974-.014.081 6.161c.012.895.748 1.631 1.643 1.643.895.011 1.611-.705 1.6-1.6l-.09-6.81C9.227 2.138 8.051.962 6.617.943 5.184.925 4.04 2.07 4.057 3.503l.107 8.107c.026 1.971 1.642 3.587 3.613 3.613 1.972.026 3.546-1.548 3.52-3.52L11.2 4.245l-.972-.012z" mask="url(#prefix__b)" transform="rotate(45 7.677 8.083)"/>
    </g>
</svg>
