<svg xmlns="http://www.w3.org/2000/svg" width="52" height="52" viewBox="0 0 52 52">
    <g fill="none" fill-rule="evenodd">
        <path d="M47 6l-3.974 2C42.391 8.838 42 9.87 42 11v36c0 1.654-1.346 3-3 3s-3-1.346-3-3v-3c0-1.105-.895-2-2-2H10V28H8v14H2c-1.105 0-2 .895-2 2v3c0 2.757 2.243 5 5 5h34c2.757 0 5-2.243 5-5V16h6c1.105 0 2-.895 2-2v-3c0-2.757-2.243-5-5-5z"/>
        <path fill="#805000" d="M47 6l-3.974 2C42.391 8.838 42 9.87 42 11v36c0 1.654-1.346 3-3 3s-3-1.346-3-3v-3c0-1.105-.895-2-2-2H10V28H8v14H2c-1.105 0-2 .895-2 2v3c0 2.757 2.243 5 5 5h34c2.757 0 5-2.243 5-5V16h6c1.105 0 2-.895 2-2v-3c0-2.757-2.243-5-5-5z" opacity=".3"/>
        <g transform="translate(8 7)">
            <path fill="#FFF" d="M8.676.129L36 1c-.653.838-1.055 1.87-1.055 3v36c0 1.654-2.383 3-4.083 3-1.7 0-3.083-1.346-3.083-3v-3c0-1.105-.896-2-2-2H0l1-25 6-3.707L8.676.13z"/>
            <rect width="24" height="4" x="6" y="24" fill="#D8C09A" rx="1"/>
            <rect width="24" height="4" x="6" y="32" fill="#D8C09A" rx="1"/>
            <rect width="24" height="4" x="6" y="16" fill="#D8C09A" rx="1"/>
            <rect width="24" height="4" x="6" y="8" fill="#D8C09A" rx="1"/>
        </g>
        <path fill="#805000" fill-rule="nonzero" d="M47 6H17.475c.335 1.553.49 2.22.466 2h25.085C42.391 8.838 42 9.87 42 11v36c0 1.654-1.346 3-3 3s-3-1.346-3-3v-3c0-1.105-.895-2-2-2H10V17c0-.552-.448-1-1-1s-1 .448-1 1v25H2c-1.105 0-2 .895-2 2v3c0 2.757 2.243 5 5 5h34c2.757 0 5-2.243 5-5V16h6c1.105 0 2-.895 2-2v-3c0-2.757-2.243-5-5-5zM5 50c-1.654 0-3-1.346-3-3v-3h32v3c0 1.125.373 2.164 1.002 3H5zm45-36h-6v-3c0-1.654 1.346-3 3-3s3 1.346 3 3v3z"/>
        <path fill="#FFA000" fill-rule="nonzero" d="M9 18c4.97 0 9-4.03 9-9s-4.03-9-9-9-9 4.03-9 9 4.03 9 9 9zM8.824 3c.388 0 .705.318.705.706V4.1C10.933 4.321 12 5.406 12 6.706c0 .487-.395.882-.882.882-.488 0-.883-.395-.883-.882 0-.478-.565-.882-1.235-.882-.67 0-1.235.404-1.235.882 0 .689.463.97 1.603 1.492 1.11.51 2.632 1.206 2.632 3.096 0 1.3-1.068 2.385-2.47 2.606v.394c0 .356-.268.653-.611.7L8.824 15c-.389 0-.706-.318-.706-.706v-.47C6.892 13.491 6 12.483 6 11.294c0-.487.395-.882.882-.882.488 0 .883.395.883.882 0 .478.565.882 1.235.882.67 0 1.235-.404 1.235-.882 0-.689-.463-.97-1.603-1.492C7.522 9.292 6 8.596 6 6.706c0-1.189.893-2.197 2.117-2.53v-.47c0-.356.268-.653.611-.7L8.824 3z"/>
    </g>
</svg>
