<?xml version="1.0" encoding="UTF-8"?>
<svg width="14px" height="11px" viewBox="0 0 14 11" version="1.1" xmlns="http://www.w3.org/2000/svg" xmlns:xlink="http://www.w3.org/1999/xlink">
    <!-- Generator: Sketch 64 (93537) - https://sketch.com -->
    <title>checkmark-white</title>
    <desc>Created with Sketch.</desc>
    <g id="Attachments" stroke="none" stroke-width="1" fill="none" fill-rule="evenodd">
        <g id="01basicinfo-07b" transform="translate(-618.000000, -397.000000)" fill="#FFFFFF">
            <g id="Group-2" transform="translate(615.000000, 328.000000)">
                <g id="Group" transform="translate(0.000000, 62.000000)">
                    <path d="M7.74033528,17.197928 L4.0047619,13.4336746 C3.63311437,13.0591737 3.63311437,12.4550084 4.0047619,12.0805076 C4.37326997,11.7091703 4.97303315,11.7068767 5.34437046,12.0753848 C5.345772,12.0767756 5.34716919,12.0781709 5.34856201,12.0795705 L8.0952381,14.8396247 L8.0952381,14.8396247 L14.6499776,8.23456087 C15.0179866,7.86372643 15.6169376,7.86143599 15.987772,8.22944502 C15.9902747,8.23192858 15.9927634,8.23442612 15.9952381,8.23693751 C16.3672661,8.61448053 16.3661944,9.22109863 15.9928347,9.59732478 L8.45014091,17.197928 C8.25562689,17.3939354 7.93904671,17.395146 7.7430393,17.200632 C7.74213452,17.1997341 7.74123317,17.1988327 7.74033528,17.197928 Z" id="checkmark-white"></path>
                </g>
            </g>
        </g>
    </g>
</svg>