<svg width="291" height="43" viewBox="0 0 291 43" fill="none" xmlns="http://www.w3.org/2000/svg">
    <path d="M54.116 7.34c-11.13 0-18.317 5.555-18.317 14.151s7.193 14.151 18.317 14.151 18.317-5.555 18.317-14.15c0-8.597-7.193-14.152-18.317-14.152zm0 23.387c-7.534 0-12.4-3.623-12.4-9.236s4.866-9.236 12.4-9.236c7.533 0 12.4 3.623 12.4 9.236s-4.873 9.236-12.4 9.236zM112.121 30.577l2.286 4.442h6.442L106.654 7.963H97.4L83.205 35.019h6.448l2.327-4.442h20.141zm-10.957-17.572h1.72l6.627 12.651h-14.98l6.633-12.651zM138.934 30.727c-7.661 0-12.608-3.623-12.608-9.236s4.867-9.236 12.4-9.236c5.623 0 9.081 2.261 10.478 3.421l3.792-3.911c-1.657-1.258-6.598-4.425-14.27-4.425-11.13 0-18.317 5.555-18.317 14.151s7.274 14.151 18.525 14.151c8.076 0 13.364-3.83 15.096-5.301l-3.799-3.918c-1.553 1.437-5.386 4.304-11.297 4.304zM187.512 7.963h-31.444v4.915h12.764v22.141h5.917V12.878h12.763V7.963zM197.314 7.963h-5.918v27.056h5.918V7.963zM219.943 7.34c-11.13 0-18.317 5.555-18.317 14.151s7.193 14.151 18.317 14.151c11.13 0 18.317-5.555 18.317-14.15 0-8.597-7.193-14.152-18.317-14.152zm0 23.387c-7.534 0-12.4-3.623-12.4-9.236s4.866-9.236 12.4-9.236c7.533 0 12.4 3.623 12.4 9.236s-4.867 9.236-12.4 9.236zM268.249 35.02h8.625V7.962h-5.923v21.005L253.015 7.963h-10.454v27.056h5.922V11.851l.762.9 19.004 22.268zM91.034.692l-21.44 40.512 2.042 1.08L93.075 1.77 91.034.69zM284.534 8.65c-.208-.3-.548-.491-1.01-.491-.485 0-1.045.288-1.045.923 0 .623.52.779 1.068.963.693.231 1.455.45 1.455 1.431 0 .98-.826 1.414-1.599 1.414-.595 0-1.19-.243-1.542-.727l.428-.318c.213.346.606.618 1.119.618.508 0 1.086-.318 1.086-.946 0-.687-.578-.86-1.195-1.05-.653-.202-1.316-.485-1.316-1.373 0-.947.842-1.35 1.564-1.35.658 0 1.149.277 1.385.594l-.398.311zM288.488 11.915h.006l1.639-4.056h.762v4.898h-.496V8.499h-.012l-1.772 4.258h-.265l-1.773-4.258h-.011v4.258h-.497V7.859h.762l1.657 4.056zM19.49 30.727c-7.66 0-12.607-3.623-12.607-9.236s4.866-9.236 12.4-9.236c1.65 0 3.244.196 4.745.588l2.62-4.476c-2.326-.681-4.802-1.027-7.36-1.027C8.158 7.34.973 12.895.973 21.49s7.273 14.151 18.524 14.151c8.076 0 13.364-3.83 15.096-5.301l-3.798-3.918c-1.56 1.437-5.398 4.304-11.303 4.304z" fill="#fff"/>
    <path d="m30.95 12.722 2.667-1.073-.646-1.13-2.269 1.626.323-2.763-1.322-.023.335 2.798-2.119-1.662-.658 1.102 2.489 1.079-2.639 1.027.578 1.136 2.343-1.603-.37 2.757 1.369.023-.387-2.786 2.194 1.684.658-1.101-2.546-1.09z" fill="#fff"/>
</svg>
