<svg width="128" height="128" viewBox="0 0 128 128" fill="none" xmlns="http://www.w3.org/2000/svg">
    <path d="M0 18C0 8.059 8.059 0 18 0h92c9.941 0 18 8.059 18 18v92c0 9.941-8.059 18-18 18H18c-9.941 0-18-8.059-18-18V18z" fill="#fff"/>
    <path d="M69.238 91.564c-23.88 0-39.315-11.165-39.315-28.444 0-17.278 15.174-28.443 38.644-28.443 6.152 0 11.465.857 15.976 2.125l9.88-16.906C87.321 17.64 78.671 16 68.55 16 31.769 16 8 34.49 8 63.12s24.03 47.121 61.22 47.121c28.298 0 46.045-14.147 50.78-18.453L105.739 77.08c-3.989 3.99-16.46 14.483-36.5 14.483z" fill="#213342"/>
    <path d="m115.191 31.41-2.349-4.12-7.103 5.108 1.025-8.667-4.828-.075 1.063 8.742-6.618-5.182-2.386 4.026 7.755 3.356-8.221 3.224 2.088 4.12 7.345-5.033-1.138 8.649 4.94.093-1.193-8.705 6.823 5.257 2.405-4.027-7.96-3.41 8.352-3.356z" fill="#213342"/>
</svg>
