<svg width="16" height="16" viewBox="0 0 16 16" fill="none" xmlns="http://www.w3.org/2000/svg">
    <mask id="3eqdu2jtha" style="mask-type:alpha" maskUnits="userSpaceOnUse" x="0" y="0" width="16" height="16">
        <path fill-rule="evenodd" clip-rule="evenodd" d="M0 0h16v16H0V0z" fill="#fff"/>
    </mask>
    <g mask="url(#3eqdu2jtha)">
        <path d="m12.203 7.269-5.204 5.42a2.488 2.488 0 0 1-3.62 0c-1.001-1.041-1.001-2.729 0-3.77l5.656-5.893a1.556 1.556 0 0 1 2.263 0c.624.65.624 1.706 0 2.357l-4.752 4.95a.624.624 0 0 1-.905 0 .689.689 0 0 1 0-.943l4.3-4.478-.68-.708-4.299 4.479a1.717 1.717 0 0 0 0 2.357c.625.65 1.638.65 2.263 0l4.752-4.95c1-1.042 1-2.73 0-3.771a2.488 2.488 0 0 0-3.62 0L2.698 8.21c-1.375 1.433-1.375 3.753 0 5.186a3.42 3.42 0 0 0 4.978 0l5.205-5.421-.68-.707z" fill="#0075CF"/>
    </g>
</svg>
