<svg xmlns="http://www.w3.org/2000/svg" width="96" height="72" viewBox="0 0 96 72">
    <g fill="none" fill-rule="evenodd">
        <g>
            <g>
                <g>
                    <g>
                        <g>
                            <g fill="#A3C3FF" fill-rule="nonzero">
                                <path d="M9.497 4.738c-2.605 0-3.907 1.28-3.907 3.845v30.08c0 2.566 1.302 3.845 3.907 3.845h23.66c2.606 0 3.908-1.28 3.908-3.845V8.583c0-2.565-1.302-3.845-3.907-3.845H9.497zm0 2.138h23.66c1.412 0 1.737.318 1.737 1.707v30.08c0 1.39-.325 1.708-1.736 1.708H9.497c-1.411 0-1.737-.318-1.737-1.708V8.583c0-1.39.326-1.707 1.737-1.707zm.796 5.068v3.345c0 .552.448 1 1 1h20.069c.552 0 1-.448 1-1v-3.345c0-.552-.448-1-1-1h-20.07c-.551 0-1 .448-1 1zm1.447 9.333c-.615 0-1.085.464-1.085 1.07 0 .605.47 1.068 1.085 1.068h18.451c.615 0 1.085-.463 1.085-1.069 0-.605-.47-1.069-1.085-1.069H11.74zm0 5.345c-.615 0-1.085.464-1.085 1.07 0 .605.47 1.068 1.085 1.068h18.451c.615 0 1.085-.463 1.085-1.069 0-.605-.47-1.069-1.085-1.069H11.74zm0 5.345c-.615 0-1.085.463-1.085 1.07 0 .605.47 1.068 1.085 1.068h17.456c.615 0 1.086-.463 1.086-1.069 0-.606-.47-1.069-1.086-1.069H11.74z" transform="translate(-852 -108) translate(615 72) translate(60 36) translate(177) translate(4 8) translate(0 2.721) rotate(-20 21.327 23.623)"/>
                                <path d="M54.647 4.708c-2.604 0-3.907 1.28-3.907 3.845v30.08c0 2.566 1.303 3.846 3.907 3.846h23.661c2.605 0 3.908-1.28 3.908-3.846V8.553c0-2.565-1.303-3.845-3.908-3.845h-23.66zm0 2.138h23.661c1.411 0 1.737.318 1.737 1.707v30.08c0 1.39-.326 1.708-1.737 1.708h-23.66c-1.412 0-1.737-.318-1.737-1.708V8.553c0-1.39.325-1.707 1.736-1.707zm.796 5.068v3.345c0 .552.448 1 1 1h20.07c.552 0 1-.448 1-1v-3.345c0-.552-.448-1-1-1h-20.07c-.552 0-1 .448-1 1zm1.447 9.333c-.615 0-1.085.464-1.085 1.07 0 .605.47 1.068 1.085 1.068h18.452c.615 0 1.085-.463 1.085-1.069 0-.605-.47-1.069-1.085-1.069H56.89zm0 5.345c-.615 0-1.085.464-1.085 1.07 0 .605.47 1.068 1.085 1.068h18.452c.615 0 1.085-.463 1.085-1.069 0-.605-.47-1.069-1.085-1.069H56.89zm0 5.345c-.615 0-1.085.463-1.085 1.07 0 .605.47 1.068 1.085 1.068h18.244c.615 0 1.085-.463 1.085-1.069 0-.606-.47-1.069-1.085-1.069H56.89z" transform="translate(-852 -108) translate(615 72) translate(60 36) translate(177) translate(4 8) translate(0 2.721) rotate(20 66.478 23.593)"/>
                            </g>
                            <g transform="translate(-852 -108) translate(615 72) translate(60 36) translate(177) translate(4 8) translate(21.967)">
                                <path fill="#E6EEFF" stroke="#FFF" stroke-width="3" d="M37.547-1.5c2.29 0 3.754.516 4.708 1.45.96.94 1.495 2.381 1.495 4.653h0v41.155c0 2.271-.535 3.714-1.495 4.653-.954.933-2.419 1.45-4.708 1.45h0H4.945c-2.29 0-3.754-.517-4.708-1.45-.96-.94-1.496-2.382-1.496-4.653h0V4.603c0-2.272.536-3.714 1.496-4.654C1.191-.984 2.656-1.5 4.945-1.5h0z"/>
                                <path fill="#A3C3FF" fill-rule="nonzero" d="M7.082 9.656v4.295c0 .552.448 1 1 1H34.41c.552 0 1-.448 1-1V9.656c0-.553-.448-1-1-1H8.082c-.552 0-1 .447-1 1z"/>
                                <rect width="28.328" height="3.148" x="7.082" y="19.672" fill="#A3C3FF" rx="1"/>
                                <rect width="28.328" height="3.148" x="7.082" y="25.967" fill="#A3C3FF" rx="1"/>
                                <rect width="28.328" height="3.148" x="7.082" y="32.262" fill="#A3C3FF" rx="1"/>
                                <rect width="28.328" height="3.148" x="7.082" y="38.557" fill="#A3C3FF" rx="1"/>
                                <path fill="#001D53" fill-rule="nonzero" d="M4.945 0C1.468 0 .24 1.182.24 4.603v41.155c0 3.42 1.227 4.603 4.704 4.603h32.602c3.477 0 4.703-1.182 4.703-4.603V4.603C42.25 1.182 41.024 0 37.547 0H4.945zM37.46 2.362c1.964 0 2.67.683 2.67 2.577v40.483c0 1.893-.706 2.577-2.67 2.577H24.393v2.362h-6.295v-2.362H5.031c-1.964 0-2.67-.684-2.67-2.577V4.939c0-1.894.706-2.577 2.67-2.577H37.46z"/>
                            </g>
                            <path fill="#1465FF" fill-rule="nonzero" stroke="#E6EEFF" stroke-width="2" d="M43.213 25.368l1.606 1.541 6.302 6.325c.446.448.668 1.031.668 1.614 0 .584-.222 1.167-.668 1.614-.447.45-1.03.672-1.613.672s-1.166-.223-1.613-.672h0l-2.423-2.431v12.684c.003.403-.1.793-.292 1.134-.192.343-.474.635-.833.847-.703.406-1.565.406-2.276-.005-.351-.207-.632-.5-.825-.842-.192-.34-.295-.73-.292-1.134h0V34.03l-2.423 2.431c-.447.45-1.03.672-1.613.672s-1.166-.223-1.613-.672c-.446-.447-.668-1.03-.668-1.614 0-.583.222-1.166.668-1.614h0l6.303-6.325 1.605-1.541z" transform="translate(-852 -108) translate(615 72) translate(60 36) translate(177) translate(4 8)"/>
                            <path fill="#1465FF" d="M43.224 28.54c.711 0 1.287.577 1.287 1.287v24.967c0 .711-.576 1.287-1.287 1.287-.71 0-1.286-.576-1.286-1.287V29.827c0-.71.576-1.287 1.286-1.287z" transform="translate(-852 -108) translate(615 72) translate(60 36) translate(177) translate(4 8)"/>
                        </g>
                    </g>
                </g>
            </g>
        </g>
    </g>
</svg>
