<svg xmlns="http://www.w3.org/2000/svg" width="36" height="36" viewBox="0 0 36 36">
    <g fill="none" fill-rule="evenodd">
        <g>
            <path fill="#805000" fill-rule="nonzero" d="M4.5 8.25h-3c-.828 0-1.5-.672-1.5-1.5s.672-1.5 1.5-1.5h3v3zm0 6h-3c-.828 0-1.5-.672-1.5-1.5s.672-1.5 1.5-1.5h3v3zm0 6h-3c-.828 0-1.5-.672-1.5-1.5s.672-1.5 1.5-1.5h3v3zm0 6h-3c-.828 0-1.5-.672-1.5-1.5s.672-1.5 1.5-1.5h3v3z" transform="translate(1.5) translate(0 3.75)"/>
            <path fill="#FFF" stroke="#874D00" stroke-width="2" d="M27.75 31.5h-24c-.828 0-1.5-.672-1.5-1.5V1.5c0-.828.672-1.5 1.5-1.5h24c.828 0 1.5.672 1.5 1.5V30c0 .828-.672 1.5-1.5 1.5z" transform="translate(1.5) translate(0 3.75)"/>
            <path fill="#DDC095" d="M7 24.75h17.5c.552 0 1 .448 1 1v1c0 .552-.448 1-1 1H7c-.552 0-1-.448-1-1v-1c0-.552.448-1 1-1zM7 18.75h17.5c.552 0 1 .448 1 1v1c0 .552-.448 1-1 1H7c-.552 0-1-.448-1-1v-1c0-.552.448-1 1-1zM7 12.75h17.5c.552 0 1 .448 1 1v1c0 .552-.448 1-1 1H7c-.552 0-1-.448-1-1v-1c0-.552.448-1 1-1zM7 3.75h17.5c.552 0 1 .448 1 1v4c0 .552-.448 1-1 1H7c-.552 0-1-.448-1-1v-4c0-.552.448-1 1-1z" transform="translate(1.5) translate(0 3.75)"/>
        </g>
        <g fill-rule="nonzero">
            <path fill="#FFA000" d="M6.75 0C3.038 0 0 3.038 0 6.75c0 3.713 3.038 6.75 6.75 6.75 3.713 0 6.75-3.037 6.75-6.75C13.5 3.038 10.463 0 6.75 0z" transform="translate(1.5) translate(21)"/>
            <path fill="#FFF2DE" d="M7.609 10.384c-.044.114-.104.21-.184.293-.081.082-.178.149-.293.195-.113.045-.242.068-.382.068-.142 0-.269-.023-.383-.07-.112-.044-.211-.11-.29-.193-.08-.082-.141-.18-.186-.293-.044-.113-.066-.233-.066-.362 0-.133.023-.256.066-.368.045-.114.107-.21.187-.293.08-.082.178-.149.29-.197.115-.049.242-.073.382-.073s.269.024.382.073c.115.048.212.113.293.196.08.082.142.18.185.293.043.112.066.234.066.368-.001.13-.023.25-.067.363zm-.553-2.303h-.612c-.268 0-.488-.211-.5-.48l-.18-4.38c-.012-.276.202-.51.478-.52l.02-.001h.977c.276 0 .5.224.5.5v.02l-.183 4.382c-.011.268-.232.48-.5.48z" transform="translate(1.5) translate(21)"/>
        </g>
    </g>
</svg>
