<svg xmlns="http://www.w3.org/2000/svg" width="54" height="64" viewBox="0 0 54 64">
    <g fill="none" fill-rule="evenodd">
        <path fill="#FFF" d="M1 9L5.783 6 36.801 6 43 9 43 49 1 49z" transform="translate(5 5)"/>
        <path fill="#494E5C" fill-rule="nonzero" d="M6 52C1.582 52 .023 50.498.023 46.15L0 11.699C0 7.351 1.56 5.85 5.977 5.85l32.046.302C42.44 6.15 44 7.653 44 12v34.302c0 4.347-1.56 5.849-5.977 5.849L6 52zm31.912-2.85c2.496 0 3.394-.87 3.394-3.275V12.427c0-2.406-.898-3.275-3.394-3.275l-4.299-.04V6.15L10 5.849l-.001 3.039-3.911-.038c-2.496 0-3.394.87-3.394 3.275l.022 33.599c0 2.406.899 3.275 3.395 3.275l31.801.15z" transform="translate(5 5)"/>
        <path fill="#494E5C" d="M22 0c4 0 4 1.79 4 4h4.94c1.038 0 1.064.747 1.06 1.717v3.566c.004.97-.022 1.717-1.06 1.717H13.06C11.923 11 12 10.104 12 9V6c0-1.104-.077-2 1.06-2H18v-.292c.008-2.025.17-3.632 3.74-3.705z" transform="translate(5 5)"/>
        <path fill="#CDCFD7" d="M13 32h24c.552 0 1 .448 1 1v2c0 .552-.448 1-1 1H13c-.552 0-1-.448-1-1v-2c0-.552.448-1 1-1zM13 40h24c.552 0 1 .448 1 1v2c0 .552-.448 1-1 1H13c-.552 0-1-.448-1-1v-2c0-.552.448-1 1-1zM13 24h24c.552 0 1 .448 1 1v2c0 .552-.448 1-1 1H13c-.552 0-1-.448-1-1v-2c0-.552.448-1 1-1zM13 16h24c.552 0 1 .448 1 1v2c0 .552-.448 1-1 1H13c-.552 0-1-.448-1-1v-2c0-.552.448-1 1-1zM7 32h2c.552 0 1 .448 1 1v2c0 .552-.448 1-1 1H7c-.552 0-1-.448-1-1v-2c0-.552.448-1 1-1zM7 40h2c.552 0 1 .448 1 1v2c0 .552-.448 1-1 1H7c-.552 0-1-.448-1-1v-2c0-.552.448-1 1-1zM7 24h2c.552 0 1 .448 1 1v2c0 .552-.448 1-1 1H7c-.552 0-1-.448-1-1v-2c0-.552.448-1 1-1zM7 16h2c.552 0 1 .448 1 1v2c0 .552-.448 1-1 1H7c-.552 0-1-.448-1-1v-2c0-.552.448-1 1-1z" transform="translate(5 5)"/>
    </g>
</svg>
