<svg xmlns="http://www.w3.org/2000/svg" width="44" height="53" viewBox="0 0 44 53">
    <g fill="none" fill-rule="evenodd">
        <path fill="#FFF" d="M1 9L5.783 6 36.801 6 43 9 43 49 1 49z"/>
        <path fill="#805000" fill-rule="nonzero" d="M6 52C1.582 52 .023 50.498.023 46.15L0 11.699C0 7.351 1.56 5.85 5.977 5.85l32.046.302C42.44 6.15 44 7.653 44 12v34.302c0 4.347-1.56 5.849-5.977 5.849L6 52zm31.912-2.85c2.496 0 3.394-.87 3.394-3.275V12.427c0-2.406-.898-3.275-3.394-3.275l-4.299-.04V6.15L10 5.849l-.001 3.039-3.911-.038c-2.496 0-3.394.87-3.394 3.275l.022 33.599c0 2.406.899 3.275 3.395 3.275l31.801.15z"/>
        <path fill="#805000" d="M22 0c4 0 4 1.79 4 4h4.94c1.038 0 1.064.747 1.06 1.717v3.566c.004.97-.022 1.717-1.06 1.717H13.06C11.923 11 12 10.104 12 9V6c0-1.104-.077-2 1.06-2H18v-.292c.008-2.025.17-3.632 3.74-3.705z"/>
        <path fill="#D8C09A" d="M7 32h30c.552 0 1 .448 1 1v2c0 .552-.448 1-1 1H7c-.552 0-1-.448-1-1v-2c0-.552.448-1 1-1zM7 40h30c.552 0 1 .448 1 1v2c0 .552-.448 1-1 1H7c-.552 0-1-.448-1-1v-2c0-.552.448-1 1-1zM7 24h30c.552 0 1 .448 1 1v2c0 .552-.448 1-1 1H7c-.552 0-1-.448-1-1v-2c0-.552.448-1 1-1zM7 16h30c.552 0 1 .448 1 1v2c0 .552-.448 1-1 1H7c-.552 0-1-.448-1-1v-2c0-.552.448-1 1-1z"/>
        <path fill="#D8C09A" d="M7 24h2c.552 0 1 .448 1 1v2c0 .552-.448 1-1 1H7c-.552 0-1-.448-1-1v-2c0-.552.448-1 1-1z"/>
        <path fill="#00A868" fill-rule="nonzero" stroke="#FFF" stroke-width="2" d="M22 19c-3.038 0-5.788 1.231-7.778 3.222C12.232 24.212 11 26.962 11 30c0 3.038 1.231 5.788 3.222 7.778C16.212 39.768 18.962 41 22 41c3.038 0 5.788-1.231 7.778-3.222C31.768 35.788 33 33.038 33 30c0-3.038-1.231-5.788-3.222-7.778C27.788 20.232 25.038 19 22 19z"/>
        <g fill-rule="nonzero">
            <path fill="#FFA000" d="M10 0C4.5 0 0 4.5 0 10s4.5 10 10 10 10-4.5 10-10S15.5 0 10 0z" transform="translate(12 20)"/>
            <path fill="#FFF2DE" d="M11.343 15.19c-.066.165-.16.307-.282.427-.124.12-.273.216-.45.283-.173.067-.37.1-.586.1-.217 0-.412-.033-.588-.102-.172-.065-.323-.161-.445-.281-.123-.12-.216-.262-.284-.427-.069-.165-.102-.34-.102-.527 0-.194.035-.373.102-.537.068-.165.163-.306.286-.426.122-.12.273-.216.445-.287.176-.07.371-.106.586-.106.216 0 .413.035.587.106.176.07.325.165.45.285.122.12.217.261.283.427.067.163.102.342.102.536-.002.189-.035.364-.104.529zm-.59-3.354H9.298c-.267 0-.488-.21-.5-.478L8.5 4.522c-.012-.276.202-.51.478-.522H11.053c.276 0 .5.224.5.5v.022l-.3 6.836c-.012.267-.233.478-.5.478z" transform="translate(12 20)"/>
        </g>
    </g>
</svg>
