<svg xmlns="http://www.w3.org/2000/svg" width="65" height="64" fill="none" viewBox="0 0 65 64">
    <path fill="#fff" fill-rule="evenodd" d="M5.78 1.306h30.602L51.86 17.675v45.019H5.78V1.306z" clip-rule="evenodd"/>
    <rect width="15.36" height="7.837" x="10.9" y="24.816" fill="#FFF3E0" rx="1"/>
    <rect width="15.36" height="7.837" x="10.9" y="36.571" fill="#FFF3E0" rx="1"/>
    <rect width="15.36" height="7.837" x="10.9" y="48.327" fill="#FFF3E0" rx="1"/>
    <rect width="15.36" height="31.347" x="31.38" y="24.816" fill="#FFF3E0" rx="1"/>
    <rect width="35.84" height="10.449" x="10.9" y="9.143" fill="#FFF3E0" rx="1"/>
    <path fill="#fff" d="M36.5 1.306l16.64 16.98H36.5V1.306z"/>
    <path fill="#734E18" fill-rule="evenodd" d="M37.687 3.7v13.489H50.93L37.687 3.699zM54.42 17.59v-.401h-.063c-.06-.19-.165-.37-.313-.52L38.054.382l-.121-.109c-.078-.061-.16-.112-.246-.153V0H8.34C6.22 0 4.5 1.754 4.5 3.918v56.164C4.5 62.246 6.22 64 8.34 64h42.24c2.12 0 3.84-1.754 3.84-3.918V17.597v-.007zM35.127 2.612V17.19l.007.195c.097 1.351 1.203 2.417 2.553 2.417l14.173-.002v40.283c0 .721-.573 1.306-1.28 1.306H8.34c-.707 0-1.28-.585-1.28-1.306V3.918c0-.721.573-1.306 1.28-1.306h26.787z" clip-rule="evenodd"/>
    <path fill="#F2A633" d="M53.14 27.429c-6.336 0-11.52 5.29-11.52 11.755 0 6.465 5.184 11.755 11.52 11.755 6.336 0 11.52-5.29 11.52-11.755 0-6.466-5.184-11.755-11.52-11.755z"/>
    <path fill="#FFF3E0" fill-rule="evenodd" d="M54.001 41.502c.269 0 .489-.212.5-.48l.342-8.371c.011-.284-.216-.52-.5-.52H51.94c-.284 0-.511.236-.5.52l.34 8.371c.01.268.231.48.5.48H54zm.291 4.52c.136-.143.24-.312.314-.51.076-.197.113-.406.115-.632 0-.233-.04-.447-.113-.642-.074-.197-.18-.366-.316-.51-.138-.143-.304-.256-.5-.34-.193-.085-.412-.128-.652-.128-.24 0-.456.043-.652.127-.19.085-.36.2-.495.344-.136.143-.242.312-.318.51-.074.195-.113.409-.113.642 0 .223.037.432.113.63.076.197.18.366.316.51.136.143.304.258.495.336.196.082.412.122.654.122.24 0 .459-.04.652-.12.196-.08.362-.195.5-.338z" clip-rule="evenodd"/>
</svg>
