<svg width="48" height="48" viewBox="0 0 48 48" fill="none" xmlns="http://www.w3.org/2000/svg">
<path d="M2.68875 0C1.21675 0 0 1.21675 0 2.68875V7.68V38.4C2.54562e-05 38.6546 0.101176 38.8988 0.281206 39.0788C0.461235 39.2588 0.7054 39.36 0.96 39.36H23.04C23.1672 39.3618 23.2935 39.3383 23.4116 39.2909C23.5296 39.2434 23.6371 39.173 23.7276 39.0837C23.8182 38.9944 23.8902 38.8879 23.9393 38.7705C23.9884 38.6532 24.0137 38.5272 24.0137 38.4C24.0137 38.2728 23.9884 38.1468 23.9393 38.0295C23.8902 37.9121 23.8182 37.8056 23.7276 37.7163C23.6371 37.627 23.5296 37.5566 23.4116 37.5091C23.2935 37.4617 23.1672 37.4382 23.04 37.44H1.92V7.68H40.32V24C40.3182 24.1272 40.3417 24.2535 40.3891 24.3716C40.4366 24.4896 40.507 24.5971 40.5963 24.6877C40.6856 24.7782 40.7921 24.8502 40.9095 24.8993C41.0268 24.9484 41.1528 24.9737 41.28 24.9737C41.4072 24.9737 41.5332 24.9484 41.6505 24.8993C41.7679 24.8502 41.8744 24.7782 41.9637 24.6877C42.053 24.5971 42.1234 24.4896 42.1709 24.3716C42.2183 24.2535 42.2418 24.1272 42.24 24V6.72V2.68875C42.24 1.21675 41.0233 0 39.5513 0H2.68875ZM2.68875 1.92H39.5513C39.9992 1.92 40.32 2.24075 40.32 2.68875V5.76H1.92V2.68875C1.92 2.24075 2.24075 1.92 2.68875 1.92ZM4.8 2.88C4.54539 2.88 4.30121 2.98114 4.12118 3.16118C3.94114 3.34121 3.84 3.58539 3.84 3.84C3.84 4.09461 3.94114 4.33879 4.12118 4.51882C4.30121 4.69886 4.54539 4.8 4.8 4.8C5.05461 4.8 5.29879 4.69886 5.47882 4.51882C5.65886 4.33879 5.76 4.09461 5.76 3.84C5.76 3.58539 5.65886 3.34121 5.47882 3.16118C5.29879 2.98114 5.05461 2.88 4.8 2.88ZM7.68 2.88C7.42539 2.88 7.18121 2.98114 7.00118 3.16118C6.82114 3.34121 6.72 3.58539 6.72 3.84C6.72 4.09461 6.82114 4.33879 7.00118 4.51882C7.18121 4.69886 7.42539 4.8 7.68 4.8C7.93461 4.8 8.17879 4.69886 8.35882 4.51882C8.53886 4.33879 8.64 4.09461 8.64 3.84C8.64 3.58539 8.53886 3.34121 8.35882 3.16118C8.17879 2.98114 7.93461 2.88 7.68 2.88ZM10.56 2.88C10.3054 2.88 10.0612 2.98114 9.88118 3.16118C9.70114 3.34121 9.6 3.58539 9.6 3.84C9.6 4.09461 9.70114 4.33879 9.88118 4.51882C10.0612 4.69886 10.3054 4.8 10.56 4.8C10.8146 4.8 11.0588 4.69886 11.2388 4.51882C11.4189 4.33879 11.52 4.09461 11.52 3.84C11.52 3.58539 11.4189 3.34121 11.2388 3.16118C11.0588 2.98114 10.8146 2.88 10.56 2.88ZM14.4 13.44C13.8698 13.44 13.44 13.8698 13.44 14.4C13.44 14.9302 13.8698 15.36 14.4 15.36H34.56C35.0902 15.36 35.52 14.9302 35.52 14.4C35.52 13.8698 35.0902 13.44 34.56 13.44H14.4ZM14.4 17.28C13.8698 17.28 13.44 17.7098 13.44 18.24C13.44 18.7702 13.8698 19.2 14.4 19.2H34.56C35.0902 19.2 35.52 18.7702 35.52 18.24C35.52 17.7098 35.0902 17.28 34.56 17.28H14.4ZM34.56 24.96C29.2694 24.96 24.96 29.2694 24.96 34.56C24.96 39.8506 29.2694 44.16 34.56 44.16C36.8606 44.16 38.9735 43.343 40.6294 41.9869L45.6825 47.04C46.0574 47.4149 46.6651 47.4149 47.04 47.04C47.4149 46.6651 47.4149 46.0574 47.04 45.6825L41.9869 40.6294C43.343 38.9735 44.16 36.8606 44.16 34.56C44.16 29.2694 39.8506 24.96 34.56 24.96ZM14.4 25.92C13.8698 25.92 13.44 26.3498 13.44 26.88C13.44 27.4102 13.8698 27.84 14.4 27.84H24.96C25.4902 27.84 25.92 27.4102 25.92 26.88C25.92 26.3498 25.4902 25.92 24.96 25.92H14.4ZM34.56 26.88C38.8129 26.88 42.24 30.3071 42.24 34.56C42.24 38.8129 38.8129 42.24 34.56 42.24C30.3071 42.24 26.88 38.8129 26.88 34.56C26.88 30.3071 30.3071 26.88 34.56 26.88ZM14.4 29.76C13.8698 29.76 13.44 30.1898 13.44 30.72C13.44 31.2502 13.8698 31.68 14.4 31.68H22.08C22.6102 31.68 23.04 31.2502 23.04 30.72C23.04 30.1898 22.6102 29.76 22.08 29.76H14.4Z" fill="#092661"/>
<path d="M2.68867 1.91992H39.5512C39.9992 1.91992 40.3199 2.24067 40.3199 2.68867V5.75992H1.91992V2.68867C1.91992 2.24067 2.24067 1.91992 2.68867 1.91992Z" fill="#E9F0FF"/>
<path d="M4.79984 2.87988C4.54524 2.87988 4.30106 2.98103 4.12102 3.16106C3.94099 3.3411 3.83984 3.58528 3.83984 3.83988C3.83984 4.09449 3.94099 4.33867 4.12102 4.51871C4.30106 4.69874 4.54524 4.79988 4.79984 4.79988C5.05445 4.79988 5.29863 4.69874 5.47867 4.51871C5.6587 4.33867 5.75984 4.09449 5.75984 3.83988C5.75984 3.58528 5.6587 3.3411 5.47867 3.16106C5.29863 2.98103 5.05445 2.87988 4.79984 2.87988ZM7.67984 2.87988C7.42524 2.87988 7.18106 2.98103 7.00102 3.16106C6.82099 3.3411 6.71984 3.58528 6.71984 3.83988C6.71984 4.09449 6.82099 4.33867 7.00102 4.51871C7.18106 4.69874 7.42524 4.79988 7.67984 4.79988C7.93445 4.79988 8.17863 4.69874 8.35867 4.51871C8.5387 4.33867 8.63984 4.09449 8.63984 3.83988C8.63984 3.58528 8.5387 3.3411 8.35867 3.16106C8.17863 2.98103 7.93445 2.87988 7.67984 2.87988ZM10.5598 2.87988C10.3052 2.87988 10.0611 2.98103 9.88102 3.16106C9.70099 3.3411 9.59984 3.58528 9.59984 3.83988C9.59984 4.09449 9.70099 4.33867 9.88102 4.51871C10.0611 4.69874 10.3052 4.79988 10.5598 4.79988C10.8145 4.79988 11.0586 4.69874 11.2387 4.51871C11.4187 4.33867 11.5198 4.09449 11.5198 3.83988C11.5198 3.58528 11.4187 3.3411 11.2387 3.16106C11.0586 2.98103 10.8145 2.87988 10.5598 2.87988ZM14.3998 13.4399C13.8696 13.4399 13.4398 13.8697 13.4398 14.3999C13.4398 14.9301 13.8696 15.3599 14.3998 15.3599H34.5598C35.09 15.3599 35.5198 14.9301 35.5198 14.3999C35.5198 13.8697 35.09 13.4399 34.5598 13.4399H14.3998ZM14.3998 17.2799C13.8696 17.2799 13.4398 17.7097 13.4398 18.2399C13.4398 18.7701 13.8696 19.1999 14.3998 19.1999H34.5598C35.09 19.1999 35.5198 18.7701 35.5198 18.2399C35.5198 17.7097 35.09 17.2799 34.5598 17.2799H14.3998ZM14.3998 25.9199C13.8696 25.9199 13.4398 26.3497 13.4398 26.8799C13.4398 27.4101 13.8696 27.8399 14.3998 27.8399H24.9598C25.49 27.8399 25.9198 27.4101 25.9198 26.8799C25.9198 26.3497 25.49 25.9199 24.9598 25.9199H14.3998ZM14.3998 29.7599C13.8696 29.7599 13.4398 30.1897 13.4398 30.7199C13.4398 31.2501 13.8696 31.6799 14.3998 31.6799H22.0798C22.61 31.6799 23.0398 31.2501 23.0398 30.7199C23.0398 30.1897 22.61 29.7599 22.0798 29.7599H14.3998Z" fill="#A3C3FF"/>
<path d="M34.56 24.96C29.2694 24.96 24.96 29.2694 24.96 34.56C24.96 39.8505 29.2694 44.16 34.56 44.16C36.8606 44.16 38.9735 43.343 40.6293 41.9868L45.6825 47.04C46.0573 47.4148 46.6651 47.4148 47.04 47.04C47.4148 46.6651 47.4148 46.0573 47.04 45.6825L41.9868 40.6293C43.343 38.9735 44.16 36.8606 44.16 34.56C44.16 29.2694 39.8505 24.96 34.56 24.96ZM34.56 26.88C38.8129 26.88 42.24 30.307 42.24 34.56C42.24 38.8129 38.8129 42.24 34.56 42.24C30.307 42.24 26.88 38.8129 26.88 34.56C26.88 30.307 30.307 26.88 34.56 26.88Z" fill="#1465FF"/>
<path d="M34.56 24.96C29.2694 24.96 24.96 29.2694 24.96 34.56C24.96 39.8505 29.2694 44.16 34.56 44.16C36.8606 44.16 38.9735 43.343 40.6293 41.9868L45.6825 47.04C46.0573 47.4148 46.6651 47.4148 47.04 47.04C47.4148 46.6651 47.4148 46.0573 47.04 45.6825L41.9868 40.6293C43.343 38.9735 44.16 36.8606 44.16 34.56C44.16 29.2694 39.8505 24.96 34.56 24.96ZM34.56 26.88C38.8129 26.88 42.24 30.307 42.24 34.56C42.24 38.8129 38.8129 42.24 34.56 42.24C30.307 42.24 26.88 38.8129 26.88 34.56C26.88 30.307 30.307 26.88 34.56 26.88Z" fill="#1465FF"/>
<path d="M34.5599 26.8799C38.8128 26.8799 42.2399 30.307 42.2399 34.5599C42.2399 38.8128 38.8128 42.2399 34.5599 42.2399C30.307 42.2399 26.8799 38.8128 26.8799 34.5599C26.8799 30.307 30.307 26.8799 34.5599 26.8799Z" fill="#E9F0FF"/>
<rect x="5" y="13" width="6" height="6" rx="1" fill="#A3C3FF"/>
<rect x="5" y="26" width="6" height="6" rx="1" fill="#A3C3FF"/>
</svg>
