<svg xmlns="http://www.w3.org/2000/svg" width="20" height="20" viewBox="0 0 20 20">
    <path fill="#FFA000" fill-rule="nonzero" d="M19.575 15.427l-4.565-4.565a2.895 2.895 0 0 0-3.33-.542L7.524 6.164V3.743L2.534 0 .04 2.495l3.743 4.99h2.42l4.157 4.156a2.901 2.901 0 0 0 .542 3.33l4.565 4.565c.57.57 1.49.57 2.054 0l2.055-2.055c.565-.569.565-1.489 0-2.054zm-6.604-6.655c1.103 0 2.14.429 2.92 1.209l.756.756a5.519 5.519 0 0 0 1.708-1.15 5.607 5.607 0 0 0 1.477-5.33.467.467 0 0 0-.783-.214l-2.9 2.9-2.648-.44-.44-2.647 2.9-2.9a.47.47 0 0 0-.222-.788 5.616 5.616 0 0 0-5.326 1.477c-1.11 1.111-1.633 2.577-1.606 4.04l3.2 3.2c.317-.074.644-.113.964-.113zm-4.05 3.197L6.71 9.759.768 15.703a2.494 2.494 0 1 0 3.528 3.528l4.819-4.819c-.296-.776-.386-1.622-.195-2.444zm-6.387 6.433a.938.938 0 0 1-.936-.936c0-.519.418-.936.936-.936a.936.936 0 0 1 0 1.871z"/>
</svg>
