<svg xmlns="http://www.w3.org/2000/svg" width="25" height="24" viewBox="0 0 25 24">
    <g fill="none" fill-rule="evenodd">
        <g>
            <g>
                <g>
                    <g>
                        <path fill="#730B1D" fill-rule="nonzero" d="M20.797 17.75c.577 1-.147 2.25-1.299 2.25H4.502c-1.155 0-1.875-1.252-1.3-2.25l7.499-13c.577-1 2.022-.999 2.598 0l7.498 13zM12 15.062c-.794 0-1.438.644-1.438 1.438 0 .794.644 1.438 1.438 1.438.794 0 1.438-.644 1.438-1.438 0-.794-.644-1.438-1.438-1.438zm-1.365-5.167l.232 4.25c.01.2.175.355.374.355h1.518c.199 0 .363-.156.374-.355l.232-4.25c.011-.214-.16-.395-.375-.395h-1.98c-.216 0-.386.18-.375.395z" transform="translate(-626 -1860) translate(615 1624) translate(0 224) translate(11.4 12)"/>
                        <path d="M0 0L24 0 24 24 0 24z" transform="translate(-626 -1860) translate(615 1624) translate(0 224) translate(11.4 12)"/>
                    </g>
                </g>
            </g>
        </g>
    </g>
</svg>
