<svg xmlns="http://www.w3.org/2000/svg" width="12" height="16" viewBox="0 0 12 16">
    <g fill="none" fill-rule="evenodd">
        <path d="M-6-4h24v24H-6z"/>
        <path fill="#1465FF" fill-rule="nonzero" d="M7 4.25V0H.75A.748.748 0 0 0 0 .75v14.5c0 .416.334.75.75.75h10.5c.416 0 .75-.334.75-.75V5H7.75A.752.752 0 0 1 7 4.25zm2 7.375a.376.376 0 0 1-.375.375h-5.25A.376.376 0 0 1 3 11.625v-.25c0-.206.169-.375.375-.375h5.25c.206 0 .375.169.375.375v.25zm0-2a.376.376 0 0 1-.375.375h-5.25A.376.376 0 0 1 3 9.625v-.25C3 9.169 3.169 9 3.375 9h5.25c.206 0 .375.169.375.375v.25zm0-2.25v.25A.376.376 0 0 1 8.625 8h-5.25A.376.376 0 0 1 3 7.625v-.25C3 7.169 3.169 7 3.375 7h5.25c.206 0 .375.169.375.375zm3-3.566V4H8V0h.19c.2 0 .391.078.532.219l3.06 3.062c.14.14.218.331.218.528z"/>
    </g>
</svg>
