<svg xmlns="http://www.w3.org/2000/svg" width="18" height="18" viewBox="0 0 18 18">
    <g fill="none" fill-rule="evenodd">
        <path d="M0 0L24 0 24 24 0 24z" transform="translate(-3 -3)"/>
        <path fill="#FFF" fill-rule="nonzero" d="M20.755 18.562l-3.505-3.505c-.158-.158-.373-.246-.598-.246h-.573c.97-1.24 1.547-2.801 1.547-4.5C17.626 6.274 14.353 3 10.313 3 6.273 3 3 6.273 3 10.312s3.273 7.312 7.313 7.312c1.698 0 3.26-.577 4.5-1.547v.573c0 .225.088.44.246.597l3.506 3.505c.33.33.865.33 1.192 0l.995-.995c.33-.33.33-.864.003-1.195zm-10.442-3.75c-2.486 0-4.5-2.011-4.5-4.5 0-2.486 2.01-4.5 4.5-4.5 2.486 0 4.5 2.011 4.5 4.5 0 2.485-2.01 4.5-4.5 4.5z" transform="translate(-3 -3)"/>
    </g>
</svg>
