<?xml version="1.0" encoding="UTF-8"?>
<svg width="88px" height="84px" viewBox="0 0 88 84" version="1.1" xmlns="http://www.w3.org/2000/svg" xmlns:xlink="http://www.w3.org/1999/xlink">
    <!-- Generator: Sketch 63.1 (92452) - https://sketch.com -->
    <title>policy</title>
    <desc>Created with Sketch.</desc>
    <style>
        @keyframes fadein-badge {
            0% { opacity: 0;}
            50% { opacity: 0;transform:translate(3px, 20px);}
            60%   {opacity:1;transform:translate(3px, 0);}
            100%   { opacity: 1;transform:translate(3px, 0);}
        }
        @keyframes fadein-slowest {
            0% { opacity: 0; }
            30% { opacity: 0;transform:scaleX(0) }
            50%   { opacity: 1;transform:scaleX(1) }
            100%   { opacity: 1; }
        }
        @keyframes fadein-slow {
            0% { opacity: 0; }
            20% { opacity: 0;transform:scaleX(0) }
            40%   { opacity: 1;transform:scaleX(1) }
            100%   { opacity: 1; }
        }
        @keyframes fadein-medium {
            0% { opacity: 0; }
            10% { opacity: 0;transform:scaleX(0) }
            30% { opacity: 1;transform:scaleX(1) }
            100%   { opacity: 1; }
        }
        @keyframes fadein-fast {
            0% { opacity: 0;transform:scaleX(0) }
            20%   { opacity: 1;transform:scaleX(1) }
            100%   { opacity: 1; }
        }
        #lines > * {opacity:1;}
        #line-1 {animation: fadein-fast 8s;animation-iteration-count:infinite;}
        #line-2 {animation: fadein-medium 8s;animation-iteration-count:infinite;}
        #line-3 {animation: fadein-slow 8s;animation-iteration-count:infinite;}
        #line-4 {animation: fadein-slowest 8s;animation-iteration-count:infinite;}
        #badge {opacity:0;animation: fadein-badge 8s;animation-iteration-count:infinite;}
    </style>
    <g id="policy" stroke="none" stroke-width="1" fill="none" fill-rule="evenodd">
        <g id="scroll" transform="translate(3.000000, 10.000000)">
            <path d="M75.9230769,0 L69.5035385,3.2173913 C68.4777692,4.56547826 67.8461538,6.22565217 67.8461538,8.04347826 L67.8461538,65.9565217 C67.8461538,68.6173043 65.6718462,70.7826087 63,70.7826087 C60.3281538,70.7826087 58.1538462,68.6173043 58.1538462,65.9565217 L58.1538462,59.9130435 C58.1538462,58.808474 57.2584157,57.9130435 56.1538462,57.9130435 L16.1538462,57.9130435 L16.1538462,57.9130435 L16.1538462,35.3913043 L12.9230769,35.3913043 L12.9230769,57.9130435 L2,57.9130435 C0.8954305,57.9130435 -1.3527075e-16,58.808474 0,59.9130435 L0,65.9565217 L0,65.9565217 C0,70.3916957 3.62330769,74 8.07692308,74 L63,74 C67.4536154,74 71.0769231,70.3916957 71.0769231,65.9565217 L71.0769231,16.0869565 L82,16.0869565 C83.1045695,16.0869565 84,15.191526 84,14.0869565 L84,8.04347826 L84,8.04347826 C84,3.60830435 80.3766923,0 75.9230769,0 Z" id="bg" fill="#A3C3FF"></path>
            <g id="lines" transform="translate(13.000000, 1.000000)">
                <path d="M14.2187911,0.209601334 L59,1.62790698 C57.930366,2.99209302 57.271741,4.67209302 57.271741,6.51162791 L57.271741,65.1162791 C57.271741,67.8088372 53.3655649,70 50.5794632,70 C47.7933614,70 45.5260743,67.8088372 45.5260743,65.1162791 L45.5260743,58.9767442 C45.5260743,57.8721747 44.6306438,56.9767442 43.5260743,56.9767442 L3.36892594,56.9767442 L3.36892594,56.9767442 L0,56.9767442 L1.63888889,16.2790698 L2,6 C4.23841618,3.50146878 6.23841618,1.83480211 8,1 C9.76158382,0.165197888 11.8345142,-0.0982683345 14.2187911,0.209601334 Z" id="Path-Copy-2" fill="#FFFFFF"></path>
                <rect id="line-4" fill="#A3C3FF" x="9.83333333" y="52.0930233" width="39.3333333" height="6.51162791" rx="1"></rect>
                <rect id="line-3" fill="#A3C3FF" x="9.83333333" y="39.0697674" width="39.3333333" height="6.51162791" rx="1"></rect>
                <rect id="line-2" fill="#A3C3FF" x="9.83333333" y="26.0465116" width="39.3333333" height="6.51162791" rx="1"></rect>
                <rect id="line-1" fill="#A3C3FF" x="9.83333333" y="13.0232558" width="39.3333333" height="6.51162791" rx="1"></rect>
            </g>
            <path d="M75.9230769,-5.15143483e-14 L28.2288462,-5.15143483e-14 C28.7827949,2.35284058 29.0398462,3.35284058 29,3 L69.5035385,3.2173913 C68.4777692,4.56547826 67.8461538,6.22565217 67.8461538,8.04347826 L67.8461538,65.9565217 C67.8461538,68.6173043 65.6718462,70.7826087 63,70.7826087 C60.3281538,70.7826087 58.1538462,68.6173043 58.1538462,65.9565217 L58.1538462,59.9130435 C58.1538462,58.808474 57.2584157,57.9130435 56.1538462,57.9130435 L16.1538462,57.9130435 L16.1538462,57.9130435 L16.1538462,16.0869565 C16.0512821,13.3623188 16,11 16,9 C16,6 19,3 23,3 C23.6715104,3 25.6715104,3 29,3 L29,-5.15143483e-14 C24.4879314,-5.15143483e-14 22.1545981,-5.15143483e-14 22,-5.15143483e-14 C18,-5.15143483e-14 13,4 13,8 C13,10.6666667 12.974359,13.3623188 12.9230769,16.0869565 L12.9230769,16.0869565 L12.9230769,57.9130435 L12.9230769,57.9130435 L2,57.9130435 C0.8954305,57.9130435 -1.3527075e-16,58.808474 0,59.9130435 L0,65.9565217 L0,65.9565217 C0,70.3916957 3.62330769,74 8.07692308,74 L63,74 C67.4536154,74 71.0769231,70.3916957 71.0769231,65.9565217 L71.0769231,16.0869565 L82,16.0869565 C83.1045695,16.0869565 84,15.191526 84,14.0869565 L84,8.04347826 L84,8.04347826 C84,3.60830435 80.3766923,-5.15143483e-14 75.9230769,-5.15143483e-14 Z M8.07692308,70.7826087 C5.40507692,70.7826087 3.23076923,68.6173043 3.23076923,65.9565217 L3.23076923,61.1304348 L54.9230769,61.1304348 L54.9230769,65.9565217 C54.9230769,67.7663043 55.5256154,69.4377391 56.5416923,70.7826087 L8.07692308,70.7826087 Z M80.7692308,12.8695652 L71.0769231,12.8695652 L71.0769231,8.04347826 C71.0769231,5.38269565 73.2512308,3.2173913 75.9230769,3.2173913 C78.5949231,3.2173913 80.7692308,5.38269565 80.7692308,8.04347826 L80.7692308,12.8695652 Z" id="outline" fill="#001D53" fill-rule="nonzero"></path>
        </g>
        <g id="badge" transform="translate(3.000000, 0.000000)">
            <path d="M16.769869,34.9273962 C15.6949915,34.2269522 14.3018095,34.2269522 13.2205338,34.9289632 L6,39 L6,27.001567 C8.28891333,28.5043092 12.040088,29.3849569 14.9976007,29.3849569 C17.9551135,29.3849569 20.7062881,28.5043092 22.996801,27 L23,38.996866 L16.769869,34.9273962 Z" id="ribbon" fill="#FFFFFF" fill-rule="nonzero"></path>
            <path d="M11.4339422,21.651746 L5.7178305,15.9928012 C5.32534853,15.6042444 5.32216651,14.9710874 5.71072327,14.5786055 C5.71308042,14.5762245 5.71544953,14.5738554 5.7178305,14.5714982 L6.21100774,14.0832533 C6.60031694,13.6978376 7.22725811,13.6974004 7.61710444,14.0822728 L11.7857143,18.1976967 L11.7857143,18.1976967 L21.3803939,8.69897363 C21.7710682,8.31220642 22.4006838,8.31331879 22.789989,8.70146404 L23.2872083,9.19720168 C23.6783148,9.58714283 23.6792596,10.2203071 23.2893184,10.6114137 C23.2877845,10.6129522 23.2862455,10.6144857 23.2847016,10.6160142 L12.1374864,21.651746 C11.9426387,21.844645 11.6287899,21.844645 11.4339422,21.651746 Z" id="check" fill="#FFFFFF"></path>
            <path d="M28.1541667,9.64238829 C26.158,4.03373243 20.7994444,0 14.5,0 C6.50405556,0 0,6.48772025 0,14.4635824 C0,17.8978797 1.21155556,21.0509407 3.22222222,23.5354627 L3.22222222,38.7881139 C3.22222222,39.9741277 3.87311111,41.0588964 4.92355556,41.619762 C5.40044444,41.8736782 5.92244444,41.9990292 6.44122222,41.9990292 C7.06633333,41.9990292 7.68661111,41.819038 8.22633333,41.4590555 L14.5016111,37.2871155 L20.7736667,41.4590555 C21.7612778,42.117952 23.0292222,42.1790205 24.0780556,41.619762 C25.1268889,41.0588964 25.7777778,39.9741277 25.7777778,38.7881139 L25.7777778,23.5354627 C27.7884444,21.0525478 29,17.8978797 29,14.4635824 C29,13.9203946 28.9645556,13.385242 28.9049444,12.8565177 L28.1541667,9.64238829 Z M16.769869,34.9273962 C15.6949915,34.2269522 14.3018095,34.2269522 13.2205338,34.9289632 L6,39 L6,27.001567 C8.28891333,28.5043092 12.040088,29.3849569 14.9976007,29.3849569 C17.9551135,29.3849569 20.7062881,28.5043092 22.996801,27 L23,38.996866 L16.769869,34.9273962 Z M11.4339422,21.651746 L5.7178305,15.9928012 C5.32534853,15.6042444 5.32216651,14.9710874 5.71072327,14.5786055 C5.71308042,14.5762245 5.71544953,14.5738554 5.7178305,14.5714982 L6.21100774,14.0832533 C6.60031694,13.6978376 7.22725811,13.6974004 7.61710444,14.0822728 L11.7857143,18.1976967 L11.7857143,18.1976967 L21.3803939,8.69897363 C21.7710682,8.31220642 22.4006838,8.31331879 22.789989,8.70146404 L23.2872083,9.19720168 C23.6783148,9.58714283 23.6792596,10.2203071 23.2893184,10.6114137 C23.2877845,10.6129522 23.2862455,10.6144857 23.2847016,10.6160142 L12.1374864,21.651746 C11.9426387,21.844645 11.6287899,21.844645 11.4339422,21.651746 Z" id="badge-frame" fill="#1465FF" fill-rule="nonzero"></path>
        </g>
    </g>
</svg>