<svg xmlns="http://www.w3.org/2000/svg" width="64" height="64" viewBox="0 0 64 64">
    <g fill="none" fill-rule="nonzero">
        <path fill="#E6EEFF" d="M62.345 62.345H1.655V4.414a2.732 2.732 0 0 1 2.759-2.759h55.172a2.732 2.732 0 0 1 2.759 2.759v57.93z"/>
        <path fill="#FFF" d="M38.676 39.89H25.324a1.978 1.978 0 0 1-1.986-1.987c0-1.103.883-1.986 1.986-1.986h13.297c1.103 0 1.986.883 1.986 1.986 0 1.104-.828 1.987-1.931 1.987z"/>
        <path fill="#1465FF" d="M32 22.903c-7.732 0-14 6.268-14 14s6.268 14 14 14 14-6.268 14-14-6.268-14-14-14z"/>
        <path fill="#FFF" d="M37.358 34.55l-7.703 7.717a2.143 2.143 0 0 1-3.048 0 2.153 2.153 0 0 1 0-3.053l7.661-7.675a2.143 2.143 0 0 1 3.048 0c.846.849.889 2.163.042 3.011z"/>
        <path fill="#FFF" d="M34.326 42.29l-7.718-7.704a2.143 2.143 0 0 1 0-3.048 2.153 2.153 0 0 1 3.053 0l7.675 7.661a2.143 2.143 0 0 1 0 3.048c-.848.847-2.162.889-3.01.042zM62.345 12.69H1.655V4.414a2.732 2.732 0 0 1 2.759-2.759h55.172a2.732 2.732 0 0 1 2.759 2.759v8.276z"/>
        <path fill="#A3C3FF" d="M59.586 0A4.427 4.427 0 0 1 64 4.414v57.93a1.63 1.63 0 0 1-.754 1.402c-.228.16-.5.254-.807.254h-.094l-.025-.001H1.68L1.654 64A1.626 1.626 0 0 1 0 62.345V4.414A4.427 4.427 0 0 1 4.414 0h55.172zm0 3.31H4.414c-.607 0-1.104.497-1.104 1.104V60.52h57.379V4.414c0-.607-.496-1.104-1.103-1.104z"/>
        <path fill="#A3C3FF" d="M56.828 6.069h-19.31c-.939 0-1.656.717-1.656 1.655 0 .938.717 1.655 1.655 1.655h19.31c.939 0 1.656-.717 1.656-1.655 0-.938-.717-1.655-1.655-1.655zm-39.78.497c-.33.275-.496.717-.496 1.158 0 .442.165.883.496 1.159.331.33.718.496 1.159.496.441 0 .883-.165 1.159-.496.33-.331.496-.717.496-1.159 0-.441-.165-.883-.496-1.158-.607-.607-1.71-.607-2.318 0zm-5.517 0c-.331.275-.497.717-.497 1.158 0 .442.166.883.497 1.159.331.33.717.496 1.159.496.441 0 .882-.165 1.158-.496.331-.331.497-.717.497-1.159 0-.441-.166-.883-.497-1.158-.607-.607-1.71-.607-2.317 0zm-5.517 0c-.331.275-.497.717-.497 1.158 0 .442.166.883.497 1.159.33.33.717.496 1.158.496.442 0 .883-.165 1.159-.496.331-.331.497-.717.497-1.159 0-.441-.166-.883-.497-1.158-.607-.607-1.71-.607-2.317 0z"/>
    </g>
</svg>
