<svg xmlns="http://www.w3.org/2000/svg" width="16" height="16" viewBox="0 0 16 16">
    <g fill="none" fill-rule="evenodd">
        <path d="M0 0L16 0 16 16 0 16z"/>
        <path d="M0 0L16 0 16 16 0 16z" opacity=".87"/>
        <path fill="#1465FF" fill-rule="nonzero" d="M12 5.333h-.667V4C11.333 2.16 9.84.667 8 .667S4.667 2.16 4.667 4v1.333H4c-.733 0-1.333.6-1.333 1.334v6.666c0 .734.6 1.334 1.333 1.334h8c.733 0 1.333-.6 1.333-1.334V6.667c0-.734-.6-1.334-1.333-1.334zM6 4c0-1.107.893-2 2-2s2 .893 2 2v1.333H6V4zm6 9.333H4V6.667h8v6.666zm-4-2c.733 0 1.333-.6 1.333-1.333S8.733 8.667 8 8.667s-1.333.6-1.333 1.333.6 1.333 1.333 1.333z"/>
    </g>
</svg>
