<svg width="351" height="51" viewBox="0 0 351 51" fill="none" xmlns="http://www.w3.org/2000/svg">
    <path d="M64.865 7.51c-13.756 0-22.646 6.917-22.646 17.625s8.89 17.624 22.646 17.624c13.757 0 22.647-6.916 22.647-17.624 0-10.709-8.89-17.624-22.647-17.624zm0 28.263c-8.778 0-14.454-4.176-14.454-10.638 0-6.463 5.676-10.639 14.454-10.639S79.32 18.672 79.32 25.135c0 6.462-5.676 10.638-14.454 10.638z" fill="#3B5A75"/>
    <path d="m134.603 36.638 2.761 5.368h8.967L128.635 8.264h-11.804L99.135 42.006h8.966l2.81-5.368h23.692zm-12.592-21.235h1.45l7.454 14.242h-16.364l7.46-14.242zM167.311 42.759c10.584 0 17.221-5.292 18.992-6.902l-5.333-5.5c-1.506 1.491-6.171 5.41-13.666 5.41-8.932 0-14.705-4.177-14.705-10.64 0-6.462 5.675-10.638 14.454-10.638 7.146 0 11.288 3.068 12.689 4.33l5.327-5.501c-1.757-1.443-7.913-5.821-18.016-5.821-13.757 0-22.647 6.916-22.647 17.624 0 10.708 8.995 17.638 22.905 17.638zM226.507 8.264h-39.025v6.985h15.416v26.757h8.193V15.249h15.416V8.264zM238.346 8.264h-8.193v33.742h8.193V8.264zM265.154 7.51c-13.756 0-22.646 6.917-22.646 17.625s8.89 17.624 22.646 17.624c13.757 0 22.647-6.916 22.647-17.624 0-10.709-8.89-17.624-22.647-17.624zm0 28.263c-8.778 0-14.454-4.176-14.454-10.638 0-6.463 5.676-10.639 14.454-10.639s14.454 4.176 14.454 10.639c0 6.462-5.676 10.638-14.454 10.638zM334.439 42.006V8.264h-8.199v24.484L305.343 8.264h-13.394v33.742h8.2V14.907l23.106 27.099h11.184z" fill="#080C0F"/>
    <path d="M109.456 0 83.561 48.957l2.466 1.304 25.894-48.957L109.456 0z" fill="#3B5A75"/>
    <path d="M343.17 9.616c-.251-.362-.663-.592-1.221-.592-.585 0-1.262.348-1.262 1.115 0 .753.628.941 1.29 1.164.837.28 1.757.544 1.757 1.73 0 1.184-.997 1.707-1.931 1.707-.718 0-1.436-.293-1.862-.878l.516-.383c.258.418.732.745 1.353.745.614 0 1.311-.383 1.311-1.143 0-.83-.697-1.039-1.443-1.269-.788-.244-1.59-.585-1.59-1.659 0-1.143 1.018-1.631 1.889-1.631.795 0 1.388.334 1.674.718l-.481.376zM347.946 13.562h.007l1.98-4.9h.92v5.918h-.599V9.435h-.014l-2.141 5.145h-.32l-2.141-5.145h-.014v5.145h-.6V8.66h.921l2.001 4.901z" fill="#080C0F"/>
    <path d="M23.045 35.773c-8.932 0-14.705-4.176-14.705-10.638 0-6.463 5.676-10.639 14.454-10.639 2.3 0 4.288.32 5.975.795l3.696-6.323c-2.657-.844-5.892-1.457-9.678-1.457C9.03 7.51.141 14.427.141 25.135c0 10.708 8.987 17.624 22.897 17.624 10.584 0 17.222-5.292 18.993-6.902l-5.334-5.5c-1.492 1.491-6.157 5.416-13.652 5.416z" fill="#3B5A75"/>
    <path d="m40.232 13.283-.879-1.54-2.656 1.91.383-3.242-1.806-.028.398 3.27-2.475-1.938-.893 1.505 2.9 1.255-3.074 1.206.78 1.541 2.748-1.882-.425 3.235 1.847.034-.446-3.255 2.552 1.966.9-1.506-2.978-1.276 3.124-1.255z" fill="#3B5A75"/>
</svg>
