<svg width="72" height="64" viewBox="0 0 72 64" fill="none" xmlns="http://www.w3.org/2000/svg">
    <g clip-path="url(#a8dj0dhjfa)">
        <path d="M71.19 55.002C73.497 59 70.6 64 65.993 64H6.007c-4.617 0-7.5-5.007-5.197-8.998L30.803 2.998c2.308-4 8.09-3.994 10.394 0L71.19 55.002zM36 44.25a5.75 5.75 0 1 0 0 11.5 5.75 5.75 0 0 0 0-11.5zm-5.46-20.668.928 17A1.5 1.5 0 0 0 32.966 42h6.068a1.5 1.5 0 0 0 1.498-1.418l.927-17A1.498 1.498 0 0 0 39.961 22H32.04a1.5 1.5 0 0 0-1.498 1.582h-.002z" fill="#70879A"/>
    </g>
    <defs>
        <clipPath id="a8dj0dhjfa">
            <path fill="#fff" d="M0 0h72v64H0z"/>
        </clipPath>
    </defs>
</svg>
