<svg width="172" height="150" viewBox="0 0 172 150" fill="none" xmlns="http://www.w3.org/2000/svg">
    <path fill-rule="evenodd" clip-rule="evenodd" d="M94.954 6.119a9.192 9.192 0 0 1-.104 6.498l16.432-5.86c6.172-2.202 12.96 1.017 15.161 7.188.994 2.787.883 5.7-.107 8.26l18.779-6.829c7.526-2.737 15.846 1.146 18.583 8.672 2.737 7.527-1.145 15.847-8.672 18.584l-23.113 8.405c4.16.671 7.83 3.542 9.319 7.8a11.853 11.853 0 0 1-1.614 10.91c5.913-1.59 12.152 1.608 14.245 7.476 2.201 6.171-1.017 12.959-7.189 15.16l-82.787 29.53c-6.172 2.201-12.96-1.018-15.161-7.189A11.86 11.86 0 0 1 50.904 103L16.36 115.083c-6.185 2.163-12.953-1.097-15.116-7.282-2.164-6.185 1.097-12.953 7.282-15.117l15.647-5.473a14.48 14.48 0 0 1-9.539-8.958c-2.737-7.526 1.146-15.846 8.673-18.583l4.092-1.488a11.827 11.827 0 0 1-6.093-6.736 11.83 11.83 0 0 1 .596-9.358l-3.183 1.14a9.228 9.228 0 0 1-6.224-17.374L83.155.544a9.228 9.228 0 0 1 11.799 5.575z" fill="#4B505C" opacity=".1"/>
    <path d="m149.62 132.401 4.154-3.462a6 6 0 0 0 .307-8.945L132.822 99.66l-11.353 11.354 19.97 20.921a6 6 0 0 0 8.181.466z" fill="#6F7585"/>
    <circle cx="82.866" cy="61.059" r="40.873" fill="#6F7585"/>
    <path d="m124.875 91.713-11.354 11.354 6.812 7.947 12.489-12.489-7.947-6.812z" fill="#4B505C"/>
    <circle cx="82.866" cy="61.059" r="31.79" fill="#fff"/>
    <path d="M83.15 18.502c-10.976 0-21.951 4.178-30.307 12.533-16.71 16.711-16.71 43.902 0 60.613A42.732 42.732 0 0 0 83.15 104.18a42.771 42.771 0 0 0 26.216-8.93l4.251 4.25-2.203 2.204a1.699 1.699 0 0 0 0 2.408l28.306 28.307a10.262 10.262 0 0 0 14.449-.059 10.261 10.261 0 0 0 .059-14.449l-28.307-28.307a1.705 1.705 0 0 0-2.408 0l-2.204 2.202-4.25-4.25c13.006-16.797 11.805-41.115-3.605-56.523-8.354-8.355-19.33-12.532-30.305-12.532zm.62 3.41a39.5 39.5 0 0 1 27.277 11.532c15.383 15.384 15.383 40.412 0 55.795-15.383 15.383-40.412 15.383-55.796 0-15.383-15.383-15.382-40.412 0-55.796a39.5 39.5 0 0 1 28.52-11.532zm-4.308 4.456a1.693 1.693 0 0 0-.19.016 34.65 34.65 0 0 0-20.966 10.072c-13.722 13.722-13.743 36.05-.022 49.772A35.061 35.061 0 0 0 83.16 96.519a35.123 35.123 0 0 0 24.902-10.291c13.722-13.722 13.738-36.05.016-49.772a34.708 34.708 0 0 0-16.289-9.245 1.704 1.704 0 0 0-2.11 1.654v.014a1.706 1.706 0 0 0 1.29 1.65 32.264 32.264 0 0 1 14.7 8.335c12.394 12.394 12.373 32.56-.021 44.955a31.836 31.836 0 0 1-44.965 0c-12.394-12.395-12.357-32.56.037-44.955a31.196 31.196 0 0 1 18.91-9.095 1.703 1.703 0 0 0-.168-3.401zM62.378 44.104a1.703 1.703 0 0 0-1.405.704 28.723 28.723 0 0 0-1.455 2.17 1.703 1.703 0 0 0 2.913 1.765c.398-.653.827-1.297 1.281-1.912a1.703 1.703 0 0 0-1.334-2.727zm-4.197 8.319a1.703 1.703 0 0 0-1.616 1.215A29.168 29.168 0 0 0 58.69 75.44a1.703 1.703 0 1 0 3.012-1.592 25.733 25.733 0 0 1-1.874-19.236 1.703 1.703 0 0 0-1.647-2.19zm56.678 37.75 4.042 4.043-2.876 2.876-4.043-4.042c.499-.454.99-.922 1.474-1.403.483-.482.95-.973 1.403-1.473zm9.858 3.045 5.871 5.87-9.691 9.691-5.871-5.87 9.691-9.691zm8.28 8.28 18.823 18.823a6.88 6.88 0 0 1 1.486 2.223 6.863 6.863 0 0 1 0 5.245 6.85 6.85 0 0 1-11.176 2.223l-18.824-18.824 9.691-9.69z" fill="#4B505C"/>
    <path d="M86.103 71.603H79.53c-.018-.94-.026-1.512-.026-1.717 0-2.119.352-3.862 1.056-5.229.705-1.366 2.114-2.904 4.227-4.613 2.114-1.709 3.376-2.828 3.789-3.358.636-.837.953-1.76.953-2.768 0-1.4-.567-2.597-1.7-3.588-1.117-1.008-2.63-1.512-4.537-1.512-1.838 0-3.376.521-4.613 1.563-1.237 1.043-2.088 2.632-2.552 4.768l-6.649-.82c.189-3.06 1.495-5.656 3.918-7.792 2.44-2.136 5.635-3.204 9.587-3.204 4.158 0 7.466 1.085 9.923 3.255 2.457 2.153 3.685 4.665 3.685 7.535 0 1.59-.455 3.093-1.366 4.511-.893 1.419-2.818 3.35-5.773 5.793-1.53 1.264-2.483 2.28-2.86 3.05-.362.769-.525 2.144-.49 4.126zm-6.572 9.689v-7.203h7.242v7.203H79.53z" fill="#4B505C"/>
</svg>
