<svg width="48" height="64" viewBox="0 0 48 64" fill="none" xmlns="http://www.w3.org/2000/svg">
    <path d="M42 8H32c0-4.412-3.587-8-8-8s-8 3.587-8 8H6c-3.313 0-6 2.688-6 6v44c0 3.313 2.688 6 6 6h36c3.313 0 6-2.688 6-6V14c0-3.313-2.688-6-6-6zM24 5c1.663 0 3 1.338 3 3s-1.337 3-3 3-3-1.338-3-3 1.337-3 3-3zm7.75 29.814c0 5.364-5.677 5.446-5.677 7.429v.507a.949.949 0 0 1-.94.96h-3.579a.95.95 0 0 1-.94-.96v-.693c0-2.86 2.124-4.003 3.73-4.921 1.376-.788 2.22-1.324 2.22-2.367 0-1.38-1.725-2.295-3.119-2.295-1.818 0-2.657.878-3.836 2.397a.927.927 0 0 1-1.307.17l-2.18-1.687a.975.975 0 0 1-.208-1.31c1.852-2.775 4.211-4.334 7.884-4.334 3.846 0 7.952 3.064 7.952 7.104zm-5 13.396c0 1.93-1.57 3.5-3.5 3.5s-3.5-1.57-3.5-3.5 1.57-3.5 3.5-3.5 3.5 1.57 3.5 3.5zM36 19c0 .55-.45 1-1 1H13c-.55 0-1-.45-1-1v-2c0-.55.45-1 1-1h22c.55 0 1 .45 1 1v2z" fill="#70879A"/>
</svg>
