<svg width="56" height="64" viewBox="0 0 56 64" fill="none" xmlns="http://www.w3.org/2000/svg">
    <path d="M54.5 20c.825 0 1.5-.675 1.5-1.5v-5c0-.825-.675-1.5-1.5-1.5H52V6c0-3.313-2.688-6-6-6H6C2.687 0 0 2.688 0 6v52c0 3.313 2.688 6 6 6h40c3.313 0 6-2.688 6-6v-6h2.5c.825 0 1.5-.675 1.5-1.5v-5c0-.825-.675-1.5-1.5-1.5H52v-8h2.5c.825 0 1.5-.675 1.5-1.5v-5c0-.825-.675-1.5-1.5-1.5H52v-8h2.5zM46 6v52H6V6h40zM25 40c-2.757 0-5 2.243-5 5s2.243 5 5 5 5-2.243 5-5-2.243-5-5-5zm1.072-24c-5.509 0-9.047 2.241-11.825 6.231-.424.61-.29 1.437.31 1.882l3.272 2.426a1.433 1.433 0 0 0 1.96-.244c1.769-2.184 3.028-3.446 5.754-3.446 2.091 0 4.678 1.316 4.678 3.3 0 1.499-1.266 2.269-3.33 3.4-2.408 1.321-5.595 2.965-5.595 7.075v.996c0 .762.632 1.38 1.411 1.38h5.367c.78 0 1.411-.618 1.411-1.38v-.729c0-2.85 8.515-2.968 8.515-10.679C38 20.405 31.842 16 26.072 16z" fill="#70879A"/>
</svg>
