<svg width="64" height="64" viewBox="0 0 64 64" fill="none" xmlns="http://www.w3.org/2000/svg">
    <g clip-path="url(#kaw62e2s9a)">
        <path d="M63.13 55.332 50.666 42.871a3 3 0 0 0-2.125-.875h-2.038a25.867 25.867 0 0 0 5.5-15.999C52.004 11.637 40.366 0 26.003 0 11.638 0 0 11.636 0 25.997 0 40.36 11.638 51.995 26.002 51.995c6.038 0 11.588-2.05 16.001-5.5v2.038a3 3 0 0 0 .875 2.125l12.464 12.46a2.989 2.989 0 0 0 4.237 0l3.538-3.536a3.013 3.013 0 0 0 .013-4.25zM26.002 41.996C17.164 41.996 10 34.846 10 25.997 10 17.161 17.15 10 26 10c8.839 0 16.002 7.15 16.002 15.998 0 8.837-7.15 15.999-16.001 15.999l.001-.001zm6.917-19.557c0 4.326-4.672 4.392-4.672 5.99v.41a.775.775 0 0 1-.775.774h-2.945a.774.774 0 0 1-.774-.774v-.559c0-2.306 1.749-3.228 3.07-3.969 1.133-.635 1.827-1.067 1.827-1.908 0-1.113-1.419-1.851-2.566-1.851-1.497 0-2.187.708-3.158 1.933a.775.775 0 0 1-1.075.137l-1.795-1.36a.776.776 0 0 1-.17-1.057c1.523-2.238 3.465-3.495 6.488-3.495 3.166 0 6.545 2.47 6.545 5.729zm-4.21 10.787A2.713 2.713 0 0 1 26 35.936a2.713 2.713 0 0 1-2.71-2.71 2.713 2.713 0 0 1 2.71-2.71 2.713 2.713 0 0 1 2.71 2.71h-.001z" fill="#70879A"/>
    </g>
    <defs>
        <clipPath id="kaw62e2s9a">
            <path fill="#fff" d="M0 0h64v64H0z"/>
        </clipPath>
    </defs>
</svg>
