<svg width="18" height="18" viewBox="0 0 18 18" fill="none" xmlns="http://www.w3.org/2000/svg">
    <path d="M9 .668A8.336 8.336 0 0 0 .667 9.001c0 4.6 3.733 8.334 8.333 8.334S17.333 13.6 17.333 9 13.6.668 9 .668zm.833 14.167H8.166v-1.667h1.667v1.667zm1.725-6.459-.75.767c-.6.608-.975 1.108-.975 2.358H8.166v-.416c0-.917.375-1.75.976-2.359l1.033-1.05c.308-.3.491-.716.491-1.175 0-.916-.75-1.666-1.666-1.666-.917 0-1.667.75-1.667 1.666H5.666a3.332 3.332 0 1 1 6.667 0c0 .734-.3 1.4-.775 1.875z" fill="#BBBCBC"/>
</svg>
