<svg width="96" height="64" viewBox="0 0 96 64" fill="none" xmlns="http://www.w3.org/2000/svg">
    <g clip-path="url(#wq22g32npa)">
        <path d="M70.385 0a8 8 0 0 1 6.657 3.562l17.614 26.423A8 8 0 0 1 96 34.422V56a8 8 0 0 1-8 8H8a8 8 0 0 1-8-8V34.422a8 8 0 0 1 1.344-4.437L18.958 3.562A8 8 0 0 1 25.616 0h44.769zm-1.427 10.667H27.042L12.82 32h20.513l5.334 10.667h18.666L62.667 32H83.18L68.958 10.667zM48 29.517a2.713 2.713 0 0 1 2.71 2.709 2.713 2.713 0 0 1-2.71 2.71 2.713 2.713 0 0 1-2.71-2.71 2.713 2.713 0 0 1 2.71-2.71v.001zm.374-13.807c3.166 0 6.545 2.47 6.545 5.729 0 4.326-4.672 4.392-4.672 5.99v.41a.775.775 0 0 1-.775.774h-2.945a.774.774 0 0 1-.774-.774v-.559c0-2.306 1.749-3.228 3.07-3.969 1.133-.635 1.827-1.067 1.827-1.908 0-1.113-1.419-1.851-2.566-1.851-1.497 0-2.187.708-3.158 1.933a.775.775 0 0 1-1.075.137l-1.795-1.36a.776.776 0 0 1-.17-1.057c1.523-2.238 3.465-3.495 6.488-3.495z" fill="#70879A"/>
    </g>
    <defs>
        <clipPath id="wq22g32npa">
            <path fill="#fff" d="M0 0h96v64H0z"/>
        </clipPath>
    </defs>
</svg>
