<svg width="76" height="64" viewBox="0 0 76 64" fill="none" xmlns="http://www.w3.org/2000/svg">
    <path d="M76 25.104c0 5.364-5.677 5.447-5.677 7.429v.507a.95.95 0 0 1-.94.96h-3.578a.95.95 0 0 1-.94-.96v-.693c0-2.86 2.123-4.002 3.729-4.921 1.376-.788 2.22-1.323 2.22-2.366 0-1.38-1.725-2.296-3.119-2.296-1.817 0-2.656.878-3.836 2.398a.927.927 0 0 1-1.306.17l-2.181-1.688a.974.974 0 0 1-.207-1.31C62.017 19.56 64.375 18 68.048 18 71.894 18 76 21.064 76 25.104zM71 38.5c0 1.93-1.57 3.5-3.5 3.5S64 40.43 64 38.5s1.57-3.5 3.5-3.5 3.5 1.57 3.5 3.5zM28 32c8.837 0 16-7.163 16-16 0-8.838-7.163-16-16-16S12 7.162 12 16c0 8.837 7.163 16 16 16zm11.2 4h-2.088A21.782 21.782 0 0 1 28 38a21.83 21.83 0 0 1-9.113-2H16.8C7.525 36 0 43.525 0 52.8V58c0 3.313 2.688 6 6 6h44c3.313 0 6-2.688 6-6v-5.2C56 43.525 48.475 36 39.2 36z" fill="#70879A"/>
</svg>
