<svg width="48" height="64" viewBox="0 0 48 64" fill="none" xmlns="http://www.w3.org/2000/svg">
    <path d="M28 0v17c0 1.65 1.35 3 3 3h17v41c0 1.663-1.337 3-3 3H3c-1.663 0-3-1.337-3-3V3c0-1.663 1.337-3 3-3h25zm-3.666 47.323c-2.205 0-4 1.794-4 4 0 2.205 1.795 4 4 4 2.206 0 4-1.795 4-4 0-2.206-1.794-4-4-4zm.054-21c-4.131 0-6.785 1.754-8.869 4.876a1.097 1.097 0 0 0 .234 1.473l2.453 1.899c.46.355 1.112.27 1.47-.191 1.327-1.71 2.27-2.698 4.316-2.698 1.568 0 3.508 1.03 3.508 2.583 0 1.173-.95 1.776-2.498 2.662-1.806 1.033-4.195 2.32-4.195 5.536v.78c0 .596.473 1.08 1.058 1.08h4.025a1.07 1.07 0 0 0 1.058-1.08v-.57c0-2.23 6.386-2.324 6.386-8.358 0-4.545-4.619-7.992-8.946-7.992zM32.763 0a3 3 0 0 1 2.125.875l12.237 12.25c.56.56.875 1.32.875 2.113V16H32V0h.763z" fill="#70879A"/>
</svg>
