<svg width="65" height="64" viewBox="0 0 65 64" fill="none" xmlns="http://www.w3.org/2000/svg">
    <path fill-rule="evenodd" clip-rule="evenodd" d="M5.78 1.305h30.602L51.86 17.674v45.019H5.78V1.305z" fill="#fff"/>
    <path d="M25.26 24.816H11.9a1 1 0 0 0-1 1v5.837a1 1 0 0 0 1 1h13.36a1 1 0 0 0 1-1v-5.837a1 1 0 0 0-1-1zM25.26 36.57H11.9a1 1 0 0 0-1 1v5.837a1 1 0 0 0 1 1h13.36a1 1 0 0 0 1-1V37.57a1 1 0 0 0-1-1zM25.26 48.328H11.9a1 1 0 0 0-1 1v5.837a1 1 0 0 0 1 1h13.36a1 1 0 0 0 1-1v-5.837a1 1 0 0 0-1-1zM45.74 24.816H32.38a1 1 0 0 0-1 1v29.347a1 1 0 0 0 1 1h13.36a1 1 0 0 0 1-1V25.816a1 1 0 0 0-1-1zM45.74 9.145H11.9a1 1 0 0 0-1 1v8.448a1 1 0 0 0 1 1h33.84a1 1 0 0 0 1-1v-8.448a1 1 0 0 0-1-1z" fill="#C9CDD6"/>
    <path d="m36.5 1.305 16.64 16.98H36.5V1.305z" fill="#fff"/>
    <path fill-rule="evenodd" clip-rule="evenodd" d="M37.687 3.7v13.489H50.93L37.687 3.699V3.7zM54.42 17.59v-.401h-.063c-.06-.19-.165-.37-.313-.52L38.054.382l-.121-.109a1.323 1.323 0 0 0-.246-.153V0H8.34C6.22 0 4.5 1.754 4.5 3.918v56.164C4.5 62.246 6.22 64 8.34 64h42.24c2.12 0 3.84-1.754 3.84-3.918V17.59zM35.127 2.612V17.19l.007.195c.097 1.351 1.203 2.417 2.553 2.417L51.86 19.8v40.283c0 .721-.573 1.306-1.28 1.306H8.34c-.707 0-1.28-.585-1.28-1.306V3.918c0-.721.573-1.306 1.28-1.306h26.787z" fill="#4B505C"/>
    <path d="M53.14 27.43c-6.336 0-11.52 5.29-11.52 11.755 0 6.465 5.184 11.755 11.52 11.755 6.336 0 11.52-5.29 11.52-11.755 0-6.466-5.184-11.755-11.52-11.755z" fill="#F2A633"/>
    <path fill-rule="evenodd" clip-rule="evenodd" d="M54.001 41.504a.5.5 0 0 0 .5-.48l.342-8.371a.5.5 0 0 0-.5-.52H51.94a.5.5 0 0 0-.5.52l.34 8.37a.5.5 0 0 0 .5.48H54.001zm.291 4.52a1.48 1.48 0 0 0 .314-.51c.076-.197.113-.406.115-.632 0-.233-.04-.447-.113-.642a1.503 1.503 0 0 0-.316-.51 1.512 1.512 0 0 0-.5-.34 1.607 1.607 0 0 0-.652-.128 1.532 1.532 0 0 0-1.147.471 1.52 1.52 0 0 0-.318.51 1.796 1.796 0 0 0-.113.642c0 .223.037.432.113.63a1.425 1.425 0 0 0 .811.846c.196.082.412.122.654.122.24 0 .459-.04.652-.12a1.45 1.45 0 0 0 .5-.338v-.001z" fill="#FFF3E0"/>
    <path d="M54.313 47.566h-2.346v-2.395h2.346v2.395zm2.43-9.28-1.057 1.102c-.587.61-1.009 1.161-1.22 2.023a5.601 5.601 0 0 0-.153 1.365h-2.346v-.598c0-.55.093-1.078.258-1.569a4.806 4.806 0 0 1 1.114-1.82l1.455-1.508c.54-.527.798-1.317.646-2.155a2.367 2.367 0 0 0-1.631-1.832c-1.303-.37-2.511.383-2.898 1.52-.141.444-.505.78-.962.78h-.352c-.681 0-1.15-.67-.963-1.342.505-1.76 1.972-3.1 3.79-3.388 1.784-.288 3.485.658 4.541 2.155 1.385 1.951.974 4.046-.223 5.268h.001z" fill="#F3F4F7"/>
    <path d="M53.14 27.21c-6.477 0-11.733 5.366-11.733 11.975s5.256 11.972 11.733 11.972 11.733-5.363 11.733-11.972c0-6.61-5.256-11.973-11.733-11.973v-.001zm1.173 20.356h-2.346V45.17h2.346v2.395zm2.43-9.28-1.057 1.102c-.587.61-1.009 1.16-1.22 2.023a5.601 5.601 0 0 0-.153 1.365h-2.346v-.598c0-.551.094-1.078.258-1.57a4.806 4.806 0 0 1 1.114-1.82l1.456-1.507c.54-.527.797-1.317.645-2.155a2.367 2.367 0 0 0-1.631-1.832c-1.302-.371-2.511.383-2.898 1.52-.141.444-.505.779-.962.779h-.352c-.68 0-1.15-.67-.962-1.341.504-1.76 1.97-3.101 3.79-3.388 1.783-.288 3.484.658 4.54 2.155 1.385 1.95.974 4.046-.223 5.268l.001-.001z" fill="#6F7585"/>
</svg>
