<svg width="59" height="59" viewBox="0 0 59 59" fill="none" xmlns="http://www.w3.org/2000/svg">
<path fill-rule="evenodd" clip-rule="evenodd" d="M59 29.5C59 45.7924 45.7924 59 29.5 59C13.2076 59 0 45.7924 0 29.5C0 13.2076 13.2076 0 29.5 0C39.562 0 48.4474 5.0376 53.7717 12.7283L51 15.5L42.7955 23.7046L30 36.5L21.5951 28.5154C20.7013 27.6662 20.6295 26.2656 21.4319 25.3295C22.2876 24.3311 23.8021 24.2448 24.7657 25.1396L30 30L40.2409 19.7591C37.5882 16.8357 33.7585 15 29.5 15C21.4919 15 15 21.4918 15 29.5C15 37.5082 21.4919 44 29.5 44C37.5081 44 44 37.5082 44 29.5C44 29.3138 43.9965 29.1285 43.9895 28.9441L56.0032 16.53C57.9224 20.4445 59 24.8463 59 29.5Z" fill="#092B75"/>
</svg>
