<svg xmlns="http://www.w3.org/2000/svg" width="52" height="50" fill="none" viewBox="0 0 52 50">
    <path fill="#092661" fill-rule="evenodd" d="M47 4l-3.974 2C42.391 6.838 42 7.87 42 9v36c0 1.654-1.346 3-3 3s-3-1.346-3-3v-3c0-1.105-.895-2-2-2H10V26H8v14H2c-1.105 0-2 .895-2 2v3c0 2.757 2.243 5 5 5h34c2.757 0 5-2.243 5-5V14h6c1.105 0 2-.895 2-2V9c0-2.757-2.243-5-5-5z" clip-rule="evenodd" opacity=".3"/>
    <path fill="#fff" fill-rule="evenodd" d="M16.5 6H44c-.653.838-1.054 1.87-1.054 3v36c0 1.654-2.384 3-4.084 3-1.7 0-3.083-1.346-3.083-3v-3c0-1.105-.896-2-2-2H8l1-25V6h7.5z" clip-rule="evenodd"/>
    <rect width="24" height="4" x="14" y="29" fill="#A3C3FF" rx="1"/>
    <rect width="24" height="4" x="14" y="37" fill="#A3C3FF" rx="1"/>
    <rect width="24" height="4" x="14" y="21" fill="#A3C3FF" rx="1"/>
    <rect width="24" height="4" x="14" y="13" fill="#A3C3FF" rx="1"/>
    <path fill="#092661" fill-rule="evenodd" d="M47 4H17c-.552 0-1 .448-1 1s.448 1 1 1h26.026C42.391 6.838 42 7.87 42 9v36c0 1.654-1.346 3-3 3s-3-1.346-3-3v-3c0-1.105-.895-2-2-2H10V15c0-.552-.448-1-1-1s-1 .448-1 1v25H2c-1.105 0-2 .895-2 2v3c0 2.757 2.243 5 5 5h34c2.757 0 5-2.243 5-5V14h6c1.105 0 2-.895 2-2V9c0-2.757-2.243-5-5-5zM5 48c-1.654 0-3-1.346-3-3v-3h32v3c0 1.125.373 2.164 1.002 3H5zM44 9v3h6V9c0-1.654-1.346-3-3-3s-3 1.346-3 3z" clip-rule="evenodd"/>
    <path fill="#092661" d="M10 7v9.5H8V6c0-1.105.895-2 2-2h9v2h-8c-.552 0-1 .448-1 1z"/>
    <circle cx="11" cy="9" r="9" fill="#1465FF"/>
    <path fill="#fff" d="M11 3C7.676 3 5 5.676 5 9s2.676 6 6 6v-2c-2.277 0-4-1.723-4-4s1.723-4 4-4 4 1.723 4 4c0 .867-.246 1.672-.688 2.313L13 10l-.5 4.5L17 14l-1.25-1.25C16.582 11.707 17 10.375 17 9c0-3.324-2.676-6-6-6z"/>
</svg>
