<svg xmlns="http://www.w3.org/2000/svg" width="52" height="52" fill="none" viewBox="0 0 52 52">
    <path fill="#F3F4F7" fill-rule="evenodd" d="M47 6l-3.974 2C42.391 8.838 42 9.87 42 11v36c0 1.654-1.346 3-3 3s-3-1.346-3-3v-3c0-1.105-.895-2-2-2H10V28H8v14H2c-1.105 0-2 .895-2 2v3c0 2.757 2.243 5 5 5h34c2.757 0 5-2.243 5-5V16h6c1.105 0 2-.895 2-2v-3c0-2.757-2.243-5-5-5z" clip-rule="evenodd"/>
    <path fill="#fff" fill-rule="evenodd" d="M10.056 22.987c.63.41 3.428 3.361 4.097 3.013.67-.349 1.847-1.126 1.847-1.864v-9.491C17.283 13.1 18 11.137 18 9c0-.338-.023-.671-.06-1H44c-.653.838-1.054 1.87-1.054 3v36c0 1.654-2.384 3-4.084 3-1.7 0-3.083-1.346-3.083-3v-3c0-1.105-.896-2-2-2H10.056V28L8 42s.884-9.227 2.056-13v-6.013z" clip-rule="evenodd"/>
    <rect width="24" height="4" x="14" y="31" fill="#C9CDD6" rx="1"/>
    <rect width="24" height="4" x="14" y="39" fill="#C9CDD6" rx="1"/>
    <rect width="24" height="4" x="14" y="23" fill="#C9CDD6" rx="1"/>
    <rect width="24" height="4" x="14" y="15" fill="#C9CDD6" rx="1"/>
    <path fill="#004A2E" fill-rule="evenodd" d="M47 6H17.475s.503 2.329.466 2h25.085C42.391 8.838 42 9.87 42 11v36c0 1.654-1.346 3-3 3s-3-1.346-3-3v-3c0-1.105-.895-2-2-2H10V23c0-.552-.448-1-1-1s-1 .448-1 1v19H2c-1.105 0-2 .895-2 2v3c0 2.757 2.243 5 5 5h34c2.757 0 5-2.243 5-5V16h6c1.105 0 2-.895 2-2v-3c0-2.757-2.243-5-5-5zM5 50c-1.654 0-3-1.346-3-3v-3h32v3c0 1.125.373 2.164 1.002 3H5zm39-39v3h6v-3c0-1.654-1.346-3-3-3s-3 1.346-3 3z" clip-rule="evenodd"/>
    <path fill="#008754" fill-rule="evenodd" d="M17.475 6C16.236 2.51 12.91 0 9 0 4.037 0 0 4.037 0 9c0 2.137.752 4.099 2 5.645v9.491c0 .738.404 1.413 1.056 1.762.296.158.62.236.942.236.388 0 .773-.112 1.108-.336l3.895-2.596 3.893 2.596c.613.41 1.4.448 2.051.1.651-.349 1.055-1.024 1.055-1.762v-9.491C17.248 13.1 18 11.137 18 9c0-.338-.022-.671-.059-1l-.466-2zM7.889 21.538L4 24.136v-7.657C5.431 17.438 7.151 18 9 18c1.849 0 3.569-.562 5.001-1.522l.002 7.656-3.895-2.597c-.672-.447-1.543-.447-2.219.001zm-.958-7.896c.195.197.514.197.71 0l6.76-6.811c.332-.335.333-.875.002-1.21-.337-.342-.887-.343-1.225-.003l-5.892 5.938-2.468-2.48c-.336-.338-.882-.337-1.218 0-.332.335-.332.875 0 1.21l3.33 3.356z" clip-rule="evenodd"/>
</svg>
