<svg width="22" height="24" viewBox="0 0 22 24" fill="none" xmlns="http://www.w3.org/2000/svg">
    <path fill-rule="evenodd" clip-rule="evenodd" d="M19.296 2.731h-4.954A3.564 3.564 0 0 0 11 .4c-1.54 0-2.845.98-3.342 2.331H2.704c-1.304 0-2.37 1.05-2.37 2.332v16.32c0 1.282 1.066 2.331 2.37 2.331h16.592c1.304 0 2.37-1.049 2.37-2.331V5.063c0-1.282-1.066-2.332-2.37-2.332zm-8.296 0c.652 0 1.185.525 1.185 1.166 0 .641-.533 1.166-1.185 1.166a1.179 1.179 0 0 1-1.185-1.166c0-.641.533-1.166 1.185-1.166zm-5.926 16.32h8.296V16.72H5.074v2.332zm11.852-4.662H5.074v-2.332h11.852v2.332zM5.074 9.726h11.852V7.394H5.074v2.332z" fill="#213342"/>
</svg>
