<svg xmlns="http://www.w3.org/2000/svg" width="52" height="52" fill="none" viewBox="0 0 52 52">
    <path fill="#092661" fill-rule="evenodd" d="M47 6l-3.974 2C42.391 8.838 42 9.87 42 11v36c0 1.654-1.346 3-3 3s-3-1.346-3-3v-3c0-1.105-.895-2-2-2H10V28H8v14H2c-1.105 0-2 .895-2 2v3c0 2.757 2.243 5 5 5h34c2.757 0 5-2.243 5-5V16h6c1.105 0 2-.895 2-2v-3c0-2.757-2.243-5-5-5z" clip-rule="evenodd" opacity=".3"/>
    <path fill="#fff" fill-rule="evenodd" d="M16.676 7.129L44 8c-.653.838-1.054 1.87-1.054 3v36c0 1.654-2.384 3-4.084 3-1.7 0-3.083-1.346-3.083-3v-3c0-1.104-.896-2-2-2H8l1-25 6-3.707 1.676-6.164z" clip-rule="evenodd"/>
    <rect width="24" height="4" x="14" y="31" fill="#A3C3FF" rx="1"/>
    <rect width="24" height="4" x="14" y="39" fill="#A3C3FF" rx="1"/>
    <rect width="24" height="4" x="14" y="23" fill="#A3C3FF" rx="1"/>
    <rect width="24" height="4" x="14" y="15" fill="#A3C3FF" rx="1"/>
    <path fill="#092661" fill-rule="evenodd" d="M47 6H17.475s.503 2.329.466 2h25.085C42.391 8.838 42 9.87 42 11v36c0 1.654-1.346 3-3 3s-3-1.346-3-3v-3c0-1.105-.895-2-2-2H10V17c0-.552-.448-1-1-1s-1 .448-1 1v25H2c-1.105 0-2 .895-2 2v3c0 2.757 2.243 5 5 5h34c2.757 0 5-2.243 5-5V16h6c1.105 0 2-.895 2-2v-3c0-2.757-2.243-5-5-5zM5 50c-1.654 0-3-1.346-3-3v-3h32v3c0 1.125.373 2.164 1.002 3H5zm39-39v3h6v-3c0-1.654-1.346-3-3-3s-3 1.346-3 3z" clip-rule="evenodd"/>
    <path fill="#1465FF" fill-rule="evenodd" d="M11 18c4.97 0 9-4.03 9-9s-4.03-9-9-9-9 4.03-9 9 4.03 9 9 9zm-5.4-7.714l3.33 3.356c.196.197.515.197.71 0l6.76-6.811c.333-.335.334-.875.003-1.21-.337-.342-.887-.343-1.225-.003l-5.892 5.938-2.468-2.48c-.336-.338-.882-.337-1.218 0-.332.335-.332.875 0 1.21z" clip-rule="evenodd"/>
    <path fill="#fff" d="M9.64 13.642c-.195.197-.514.197-.71 0L5.6 10.286c-.332-.335-.332-.875 0-1.21.336-.337.882-.338 1.218 0l2.468 2.48 5.892-5.938c.338-.34.888-.34 1.224.002.332.336.33.876-.002 1.21l-6.76 6.812z"/>
</svg>
