<svg xmlns="http://www.w3.org/2000/svg" width="52" height="52" viewBox="0 0 52 52">
    <g fill="none" fill-rule="evenodd">
        <path fill="#A3C3FF" d="M47 6l-3.974 2C42.391 8.838 42 9.87 42 11v36c0 1.654-1.346 3-3 3s-3-1.346-3-3v-3c0-1.105-.895-2-2-2H10V28H8v14H2c-1.105 0-2 .895-2 2v3c0 2.757 2.243 5 5 5h34c2.757 0 5-2.243 5-5V16h6c1.105 0 2-.895 2-2v-3c0-2.757-2.243-5-5-5z"/>
        <g transform="translate(8 8)">
            <path fill="#FFF" d="M2.056 14.987c.63.41 3.428 3.361 4.097 3.013C6.823 17.651 8 16.874 8 16.136V6.645C9.283 5.1 10 3.137 10 1c0-.338-.023-.671-.06-1H36c-.653.838-1.055 1.87-1.055 3v36c0 1.654-2.383 3-4.083 3-1.7 0-3.083-1.346-3.083-3v-3c0-1.105-.896-2-2-2H2.056V20L0 34c.59-6.151 1.275-10.484 2.056-13v-6.013z"/>
            <rect width="24" height="4" x="6" y="23" fill="#A3C3FF" rx="1"/>
            <rect width="24" height="4" x="6" y="31" fill="#A3C3FF" rx="1"/>
            <rect width="24" height="4" x="6" y="15" fill="#A3C3FF" rx="1"/>
            <rect width="24" height="4" x="6" y="7" fill="#A3C3FF" rx="1"/>
        </g>
        <path fill="#001D53" fill-rule="nonzero" d="M47 6H17.475c.335 1.553.49 2.22.466 2h25.085C42.391 8.838 42 9.87 42 11v36c0 1.654-1.346 3-3 3s-3-1.346-3-3v-3c0-1.105-.895-2-2-2H10V23c0-.552-.448-1-1-1s-1 .448-1 1v19H2c-1.105 0-2 .895-2 2v3c0 2.757 2.243 5 5 5h34c2.757 0 5-2.243 5-5V16h6c1.105 0 2-.895 2-2v-3c0-2.757-2.243-5-5-5zM5 50c-1.654 0-3-1.346-3-3v-3h32v3c0 1.125.373 2.164 1.002 3H5zm45-36h-6v-3c0-1.654 1.346-3 3-3s3 1.346 3 3v3z"/>
        <path fill="#1465FF" fill-rule="nonzero" d="M17.475 6C16.236 2.51 12.91 0 9 0 4.037 0 0 4.037 0 9c0 2.137.752 4.099 2 5.645v9.491c0 .738.404 1.413 1.056 1.762.296.158.62.236.942.236.388 0 .773-.112 1.108-.336l3.895-2.596 3.893 2.596c.613.41 1.4.448 2.051.1.651-.349 1.055-1.024 1.055-1.762v-9.491C17.248 13.1 18 11.137 18 9c0-.338-.022-.671-.059-1l-.466-2zm-7.367 15.537c-.672-.447-1.543-.447-2.219.001L4 24.136v-7.657C5.431 17.438 7.151 18 9 18c1.849 0 3.569-.562 5.001-1.522l.002 7.656-3.895-2.597zm-3.177-7.895L3.604 10.29c-.334-.337-.334-.88 0-1.218.332-.334.872-.336 1.206-.004l.004.004 2.472 2.484 5.899-5.945c.331-.334.87-.336 1.204-.004l.007.006c.335.34.334.886-.002 1.225L7.64 13.642c-.195.196-.511.198-.707.003l-.003-.003z"/>
    </g>
</svg>
