<svg xmlns="http://www.w3.org/2000/svg" width="52" height="52" fill="none" viewBox="0 0 52 52">
    <path fill="#800B23" fill-rule="evenodd" d="M47 6l-3.974 2C42.391 8.838 42 9.87 42 11v36c0 1.654-1.346 3-3 3s-3-1.346-3-3v-3c0-1.105-.895-2-2-2H10V28H8v14H2c-1.105 0-2 .895-2 2v3c0 2.757 2.243 5 5 5h34c2.757 0 5-2.243 5-5V16h6c1.105 0 2-.895 2-2v-3c0-2.757-2.243-5-5-5z" clip-rule="evenodd" opacity=".3"/>
    <path fill="#fff" fill-rule="evenodd" d="M16.676 7.129L44 8c-.653.838-1.054 1.87-1.054 3v36c0 1.654-2.384 3-4.084 3-1.7 0-3.083-1.346-3.083-3v-3c0-1.104-.896-2-2-2H8l1-25 6-3.707 1.676-6.164z" clip-rule="evenodd"/>
    <rect width="24" height="4" x="14" y="31" fill="#FFD9E0" rx="1"/>
    <rect width="24" height="4" x="14" y="39" fill="#FFD9E0" rx="1"/>
    <rect width="24" height="4" x="14" y="23" fill="#FFD9E0" rx="1"/>
    <rect width="24" height="4" x="14" y="15" fill="#FFD9E0" rx="1"/>
    <path fill="#800B23" fill-rule="evenodd" d="M47 6H17.475s.503 2.329.466 2h25.085C42.391 8.838 42 9.87 42 11v36c0 1.654-1.346 3-3 3s-3-1.346-3-3v-3c0-1.105-.895-2-2-2H10V17c0-.552-.448-1-1-1s-1 .448-1 1v25H2c-1.105 0-2 .895-2 2v3c0 2.757 2.243 5 5 5h34c2.757 0 5-2.243 5-5V16h6c1.105 0 2-.895 2-2v-3c0-2.757-2.243-5-5-5zM5 50c-1.654 0-3-1.346-3-3v-3h32v3c0 1.125.373 2.164 1.002 3H5zm39-39v3h6v-3c0-1.654-1.346-3-3-3s-3 1.346-3 3z" clip-rule="evenodd"/>
    <path fill="#E8153F" d="M10 0C5.05 0 1 4.05 1 9s4.05 9 9 9 9-4.05 9-9-4.05-9-9-9z"/>
    <path fill="#fff" fill-rule="evenodd" d="M10.567 10.774c.268 0 .489-.211.5-.479l.257-6.175c.012-.284-.215-.52-.5-.52H9.176c-.284 0-.512.236-.5.52l.256 6.175c.01.268.231.48.5.48h1.135zm.332 3.462c.107-.11.188-.24.245-.39.06-.152.088-.312.09-.485 0-.178-.03-.342-.088-.491-.058-.152-.14-.281-.247-.391-.108-.11-.237-.196-.39-.261-.152-.065-.322-.097-.51-.097-.187 0-.356.032-.51.097-.149.065-.28.153-.386.263-.106.11-.19.24-.249.39-.057.15-.088.314-.088.492 0 .17.03.331.088.482.06.151.14.281.247.39.106.11.238.199.387.258.153.063.322.094.511.094.188 0 .358-.03.51-.092.153-.061.282-.15.39-.26z" clip-rule="evenodd"/>
</svg>
