<?xml version="1.0" encoding="UTF-8"?>
<svg width="44px" height="53px" viewBox="0 0 44 53" version="1.1" xmlns="http://www.w3.org/2000/svg" xmlns:xlink="http://www.w3.org/1999/xlink">
    <title>icon/empty-list</title>
    <g id="Symbols" stroke="none" stroke-width="1" fill="none" fill-rule="evenodd">
        <g id="icon/success" transform="translate(-4.000000, 0.000000)">
            <g id="icon/empty-list" transform="translate(4.000000, 0.000000)">
                <polygon id="Rectangle" fill="#FFFFFF" points="1 9 5.7827166 6 36.8008814 6 43 9 43 49 1 49"></polygon>
                <path d="M6,6 C1.58181818,6 0.0227272727,7.50188679 0.0227272727,11.8490566 L3.63797881e-12,46.3018868 C3.63797881e-12,50.6490566 1.55909091,52.1509434 5.97727273,52.1509434 L38.0227273,51.8490566 C42.4409091,51.8490566 44,50.3471698 44,46 L44,11.6981132 C44,7.3509434 42.4409091,5.8490566 38.0227273,5.8490566 L6,6 Z M37.912221,8.85032264 C40.4081606,8.85032264 41.3062371,9.71921134 41.3062371,12.1254893 L41.3062371,45.5726239 C41.3062371,47.9789019 40.4081606,48.8477906 37.912221,48.8477906 L33.613,48.8880566 L33.6136364,51.8490566 L10,52.1509434 L9.999,49.1120566 L6.08777899,49.1496774 C3.59183942,49.1496774 2.69376288,48.2807887 2.69376288,45.8745107 L2.71649015,12.2764327 C2.71649015,9.87015474 3.6145667,9.00126604 6.11050627,9.00126604 L37.912221,8.85032264 Z" id="Shape-Copy" fill="#1F4D3B" fill-rule="nonzero" transform="translate(22.000000, 29.000000) scale(1, -1) translate(-22.000000, -29.000000) "></path>
                <path d="M22,0 C26,0 26,1.790861 26,4 L25.9999068,4 L30.9396226,4 C31.9780528,4 32.0042011,4.74694896 32.0008966,5.71717071 L32.0008966,9.28282929 C32.0042011,10.253051 31.9780528,11 30.9396226,11 L30.9396226,11 L13.0603774,11 C12.1208453,11 12.0099612,10.388552 11.9998097,9.55350768 L11.9996697,9.14276387 L11.9996697,9.14276387 L12,9 L12,6 C12,5.952 11.9998545,5.90439319 11.9996697,5.85723613 L11.9998097,5.44649232 C12.0099612,4.61144802 12.1208453,4 13.0603774,4 L13.0603774,4 L17.9999068,4 L18.0003512,3.70804732 C18.0077257,1.68341636 18.1699643,0.0762930014 21.7392154,0.00263806477 Z" id="Path-3" fill="#1F4D3B"></path>
                <path d="M7,32 L37,32 C37.5522847,32 38,32.4477153 38,33 L38,35 C38,35.5522847 37.5522847,36 37,36 L7,36 C6.44771525,36 6,35.5522847 6,35 L6,33 C6,32.4477153 6.44771525,32 7,32 Z" id="Rectangle-Copy" fill="#B8C9C4"></path>
                <path d="M7,40 L37,40 C37.5522847,40 38,40.4477153 38,41 L38,43 C38,43.5522847 37.5522847,44 37,44 L7,44 C6.44771525,44 6,43.5522847 6,43 L6,41 C6,40.4477153 6.44771525,40 7,40 Z" id="Rectangle-Copy-4" fill="#B8C9C4"></path>
                <path d="M7,24 L37,24 C37.5522847,24 38,24.4477153 38,25 L38,27 C38,27.5522847 37.5522847,28 37,28 L7,28 C6.44771525,28 6,27.5522847 6,27 L6,25 C6,24.4477153 6.44771525,24 7,24 Z" id="Rectangle-Copy-2" fill="#B8C9C4"></path>
                <path d="M7,16 L37,16 C37.5522847,16 38,16.4477153 38,17 L38,19 C38,19.5522847 37.5522847,20 37,20 L7,20 C6.44771525,20 6,19.5522847 6,19 L6,17 C6,16.4477153 6.44771525,16 7,16 Z" id="Rectangle-Copy-3" fill="#B8C9C4"></path>
                <path d="M22,19 C25.0375661,19 27.7875661,20.2312169 29.7781746,22.2218254 C31.7687831,24.2124339 33,26.9624339 33,30 C33,33.0375661 31.7687831,35.7875661 29.7781746,37.7781746 C27.7875661,39.7687831 25.0375661,41 22,41 C18.9624339,41 16.2124339,39.7687831 14.2218254,37.7781746 C12.2312169,35.7875661 11,33.0375661 11,30 C11,26.9624339 12.2312169,24.2124339 14.2218254,22.2218254 C16.2124339,20.2312169 18.9624339,19 22,19 Z" id="Shape" stroke="#FFFFFF" stroke-width="2" fill="#00A868" fill-rule="nonzero"></path>
                <path d="M19.7403353,35.197928 L16.0047619,31.4336746 C15.6331144,31.0591737 15.6331144,30.4550084 16.0047619,30.0805076 C16.37327,29.7091703 16.9730332,29.7068767 17.3443705,30.0753848 C17.345772,30.0767756 17.3471692,30.0781709 17.348562,30.0795705 L20.0952381,32.8396247 L20.0952381,32.8396247 L26.6499776,26.2345609 C27.0179866,25.8637264 27.6169376,25.861436 27.987772,26.229445 C27.9902747,26.2319286 27.9927634,26.2344261 27.9952381,26.2369375 C28.3672661,26.6144805 28.3661944,27.2210986 27.9928347,27.5973248 L20.4501409,35.197928 C20.2556269,35.3939354 19.9390467,35.395146 19.7430393,35.200632 C19.7421345,35.1997341 19.7412332,35.1988327 19.7403353,35.197928 Z" id="Path" fill="#FFFFFF"></path>
            </g>
        </g>
    </g>
</svg>