<svg xmlns="http://www.w3.org/2000/svg" width="24" height="24" fill="none" viewBox="0 0 24 24">
    <path fill="#A5AAB8" fill-rule="evenodd" d="M16.667 14.718l3.115 3.115c.291.294.291.769-.003 1.062l-.884.885c-.29.293-.766.293-1.06 0l-3.116-3.116c-.14-.14-.218-.33-.218-.53v-.51c-1.103.862-2.491 1.375-4 1.375-3.591 0-6.501-2.91-6.501-6.5S6.91 4 10.5 4c3.591 0 6.501 2.91 6.501 6.5 0 1.509-.513 2.896-1.375 3.999h.51c.2 0 .39.078.53.219zM6.5 10.499c0 2.213 1.791 4 4 4 2.213 0 4-1.79 4-4 0-2.212-1.79-4-4-4-2.212 0-4 1.791-4 4z" clip-rule="evenodd"/>
</svg>
