<svg xmlns="http://www.w3.org/2000/svg" xmlns:xlink="http://www.w3.org/1999/xlink" width="30" height="36" viewBox="0 0 30 36">
    <defs>
        <path id="prefix__a" d="M11.112 0C8.146 0 5.353 1.164 3.268 3.297.016 6.575-.902 11.463.935 15.731c.095.213.305.349.535.349.076 0 .153-.02.23-.04.287-.135.42-.464.306-.755C.34 11.445 1.164 7.06 4.072 4.112c1.893-1.9 4.38-2.948 7.04-2.948 2.238 0 4.361.737 6.102 2.114l-1.014.116c-.306.04-.535.33-.497.64.038.292.287.505.574.505h.076l2.296-.272c.306-.039.516-.31.497-.62l-.134-2.192c-.019-.33-.287-.563-.612-.544-.325.02-.554.292-.535.621l.038.796C15.97.834 13.598 0 11.112 0zm9.614 6.368c-.074.001-.15.018-.222.052-.287.136-.42.466-.287.776 1.665 3.84.861 8.244-2.065 11.211-1.894 1.882-4.381 2.93-7.04 2.93-2.239 0-4.362-.738-6.103-2.115l1.014-.116c.306-.04.536-.33.497-.64-.038-.311-.325-.544-.631-.505l-2.296.272c-.306.039-.516.31-.497.62l.134 2.192c.02.31.268.544.574.544h.038c.325-.02.555-.292.536-.621l-.039-.796c1.913 1.494 4.286 2.328 6.773 2.328 2.965 0 5.758-1.164 7.843-3.297 3.271-3.317 4.17-8.205 2.315-12.492-.1-.218-.32-.349-.544-.343z"/>
    </defs>
    <g fill="none" fill-rule="evenodd">
        <path fill="#FFF" d="M3.491 0C1.037 0 .171.845.171 3.29v29.42c0 2.445.866 3.29 3.32 3.29H26.51c2.454 0 3.32-.845 3.32-3.29V3.29C29.83.845 28.964 0 26.51 0H3.49z"/>
        <path fill="#A3C3FF" fill-rule="nonzero" d="M5 7.188v2.5c0 .552.448 1 1 1h18c.552 0 1-.448 1-1v-2.5c0-.553-.448-1-1-1H6c-.552 0-1 .447-1 1z"/>
        <rect width="20" height="2.25" x="5" y="14.063" fill="#A3C3FF" rx="1"/>
        <rect width="20" height="2.25" x="5" y="18.563" fill="#A3C3FF" rx="1"/>
        <rect width="20" height="2.25" x="5" y="23.063" fill="#A3C3FF" rx="1"/>
        <rect width="20" height="2.25" x="5" y="27.563" fill="#A3C3FF" rx="1"/>
        <path fill="#001D53" fill-rule="nonzero" d="M3.491 0C1.037 0 .171.845.171 3.29v29.42c0 2.445.866 3.29 3.32 3.29H26.51c2.454 0 3.32-.845 3.32-3.29V3.29C29.83.845 28.964 0 26.51 0H3.49zm.062 1.688h22.894c1.387 0 1.886.489 1.886 1.842v28.94c0 1.353-.499 1.842-1.886 1.842H3.553c-1.387 0-1.886-.489-1.886-1.842V3.53c0-1.353.499-1.842 1.886-1.842z"/>
        <g fill-rule="nonzero" transform="translate(3.889 6.75)">
            <use fill="#1465FF" xlink:href="#prefix__a"/>
            <path stroke="#FFF" stroke-width="1.5" d="M6.83 19.522c.06-.053.115-.112.164-.176.209-.269.315-.616.27-.972-.043-.356-.228-.668-.492-.879-.27-.215-.62-.323-.977-.278l-2.29.271c-.36.046-.66.225-.866.482-.2.25-.313.578-.292.93l.135 2.191c.021.355.177.664.411.886.237.225.557.362.967.362.389-.016.719-.19.946-.453.086-.1.157-.213.211-.336 1.813 1.099 3.912 1.7 6.095 1.7 3.168 0 6.152-1.244 8.38-3.523 1.74-1.765 2.85-3.95 3.28-6.266.429-2.316.175-4.762-.821-7.063-.133-.29-.35-.517-.69-.646-.211-.08-.475-.32-1.763.736-.114.306-.118.66.03 1.005.773 1.783.973 3.695.64 5.505-.333 1.806-1.197 3.51-2.55 4.883-1.747 1.735-4.046 2.705-6.506 2.705-1.517 0-2.977-.366-4.282-1.064zM11.112-.75C7.944-.75 4.96.494 2.732 2.773 1.002 4.518-.111 6.695-.544 9.005-1 11.433-.696 13.976 1.52 15.857c.793.672 1.63 1.09 2.484 1.31-.522-.653-.966-1.383-1.311-2.18-.77-1.777-.967-3.68-.634-5.48.334-1.803 1.198-3.502 2.546-4.868 1.748-1.755 4.047-2.725 6.506-2.725 1.831 0 3.58.534 5.074 1.54l-1.682 2.463 5.777-1.845-3.307-5.456.108 2.254C15.29-.178 13.24-.75 11.112-.75z"/>
            <use stroke="#1465FF" stroke-width=".5" xlink:href="#prefix__a"/>
        </g>
    </g>
</svg>
