<?xml version="1.0" encoding="UTF-8"?>
<svg width="48px" height="48px" viewBox="0 0 48 48" version="1.1" xmlns="http://www.w3.org/2000/svg" xmlns:xlink="http://www.w3.org/1999/xlink">
    <!-- Generator: Sketch 64 (93537) - https://sketch.com -->
    <title>icons8-confetti</title>
    <desc>Created with Sketch.</desc>
    <g id="Symbols" stroke="none" stroke-width="1" fill="none" fill-rule="evenodd">
        <g id="submit-confirmation" transform="translate(-24.000000, -24.000000)" fill-rule="nonzero">
            <g id="Group-7-Copy-4">
                <g id="icons8-confetti" transform="translate(24.000000, 24.000000)">
                    <path d="M1.68888889,46.0981132 L12.3111111,20.0150943 L12.3111111,20.0150943 C21.2,22.3698113 24.9777778,26.2188679 27.2888889,35.2754717 L27.2888889,35.2754717 L1.68888889,46.0981132 Z" id="Path" fill="#FFFFFF"></path>
                    <path d="M1.68888889,46.0981132 L12.3111111,20.0150943 L12.3111111,20.0150943 C21.2,22.3698113 24.9777778,26.2188679 27.2888889,35.2754717 L27.2888889,35.2754717 L1.68888889,46.0981132 Z" id="Path" fill="#FFFFFF"></path>
                    <path d="M22.2666667,25.1320755 C14.7555556,18.9735849 6.97777778,33.7811321 3.51111111,41.6150943 L1.68888889,46.0981132 L27.2888889,35.2754717 C26.1333333,30.7471698 24.6222222,27.5320755 22.2666667,25.1320755 Z" id="Path" fill="#FFFFFF"></path>
                    <path d="M25.6444444,30.3396226 L2.22222222,44.8301887 L1.68888889,46.0981132 L27.2888889,35.2754717 C26.8,33.4188679 26.2666667,31.7886792 25.6444444,30.3396226 Z" id="Path" fill="#A3C3FF"></path>
                    <path d="M1.68888889,47.4566038 C1.33333333,47.4566038 1.02222222,47.3207547 0.755555556,47.0490566 C0.355555556,46.6415094 0.266666667,46.0981132 0.488888889,45.554717 L9.15555556,24.2716981 C9.42222222,23.5924528 10.2222222,23.2301887 10.8888889,23.5471698 C11.5555556,23.8188679 11.9111111,24.6339623 11.6,25.3132075 L4.17777778,43.5622642 L25.6888889,34.4603774 C23.6888889,28.5735849 17.7777778,22.8226415 12,21.3283019 C11.2888889,21.1471698 10.8444444,20.3773585 11.0222222,19.6528302 C11.2,18.9283019 11.9555556,18.4754717 12.6666667,18.6566038 C19.7777778,20.5132075 26.7555556,27.6679245 28.5777778,34.8679245 C28.7555556,35.5018868 28.4,36.2264151 27.7777778,36.4528302 L2.22222222,47.3660377 C2.04444444,47.4566038 1.86666667,47.4566038 1.68888889,47.4566038 Z M24.2222222,19.4716981 C24,19.4716981 23.8222222,19.4264151 23.6444444,19.3358491 C22.9777778,19.0188679 22.7111111,18.2037736 23.0666667,17.5245283 C25.4666667,12.6792453 25.4666667,6.92830189 23.0666667,2.08301887 C22.7555556,1.40377358 23.0222222,0.588679245 23.6444444,0.271698113 C24.3111111,-0.0452830189 25.1111111,0.226415094 25.4222222,0.860377358 C28.1777778,6.4754717 28.1777778,13.1320755 25.4222222,18.7471698 C25.2,19.2 24.7111111,19.4716981 24.2222222,19.4716981 Z M29.2,24.4981132 C28.7111111,24.4981132 28.2222222,24.2264151 28,23.7283019 C27.6888889,23.0490566 27.9555556,22.2339623 28.5777778,21.9169811 C34.0888889,19.109434 40.6222222,19.109434 46.1333333,21.9169811 C46.8,22.2339623 47.0666667,23.0490566 46.7111111,23.7283019 C46.4,24.4075472 45.6,24.6792453 44.9333333,24.3169811 C40.1777778,21.9169811 34.5333333,21.9169811 29.7777778,24.3169811 C29.6,24.4528302 29.3777778,24.4981132 29.2,24.4981132 Z M18.4,16.0754717 C17.6888889,16.0754717 17.1111111,15.5320755 17.0666667,14.8075472 C16.9777778,13.6301887 16.4888889,12.5433962 15.6888889,11.7283019 C15.1555556,11.1849057 15.1555556,10.3245283 15.6888889,9.82641509 C16.2222222,9.28301887 17.0666667,9.28301887 17.5555556,9.82641509 C18.8,11.0943396 19.6,12.8150943 19.7333333,14.6264151 C19.7777778,15.3962264 19.2444444,16.0301887 18.4888889,16.0754717 C18.4444444,16.0754717 18.4444444,16.0754717 18.4,16.0754717 Z" id="Shape" fill="#1465FF"></path>
                    <path d="M11.2888889,8.60377358 C10.5333333,8.60377358 9.95555556,8.01509434 9.95555556,7.24528302 C9.95555556,6.4754717 10.5333333,5.88679245 11.2888889,5.88679245 L11.2888889,5.88679245 C12.0444444,5.88679245 12.6222222,6.4754717 12.6222222,7.24528302 C12.6222222,8.01509434 12.0444444,8.60377358 11.2888889,8.60377358 Z" id="Path" fill="#001D53"></path>
                    <path d="M37.0666667,38.0830189 C36.3111111,38.0830189 35.7333333,37.4943396 35.7333333,36.7245283 C35.7333333,35.954717 36.3111111,35.3660377 37.0666667,35.3660377 L37.0666667,35.3660377 C37.8222222,35.3660377 38.4,35.954717 38.4,36.7245283 C38.4,37.4490566 37.8222222,38.0830189 37.0666667,38.0830189 Z" id="Path" fill="#001D53"></path>
                    <path d="M32.3555556,7.01886792 C31.6,7.01886792 31.0222222,6.43018868 31.0222222,5.66037736 C31.0222222,4.89056604 31.6,4.30188679 32.3555556,4.30188679 L32.3555556,4.30188679 C33.1111111,4.30188679 33.6888889,4.89056604 33.6888889,5.66037736 C33.6888889,6.43018868 33.0666667,7.01886792 32.3555556,7.01886792 Z" id="Path" fill="#001D53"></path>
                    <path d="M21.3333333,10.5056604 C20.5777778,10.5056604 20,9.91698113 20,9.14716981 C20,8.37735849 20.5777778,7.78867925 21.3333333,7.78867925 L21.3333333,7.78867925 C22.0888889,7.78867925 22.6666667,8.37735849 22.6666667,9.14716981 C22.6666667,9.91698113 22.0888889,10.5056604 21.3333333,10.5056604 Z" id="Path" fill="#A3C3FF"></path>
                    <path d="M31.4222222,18.8377358 C30.6666667,18.8377358 30.0888889,18.2490566 30.0888889,17.4792453 C30.0888889,16.709434 30.6666667,16.1207547 31.4222222,16.1207547 L31.4222222,16.1207547 C32.1777778,16.1207547 32.7555556,16.709434 32.7555556,17.4792453 C32.7555556,18.2490566 32.1333333,18.8377358 31.4222222,18.8377358 Z" id="Path" fill="#001D53"></path>
                    <path d="M38.6222222,16.6188679 C37.8666667,16.6188679 37.2888889,16.0301887 37.2888889,15.2603774 C37.2888889,14.490566 37.8666667,13.9018868 38.6222222,13.9018868 L38.6222222,13.9018868 C39.3777778,13.9018868 39.9555556,14.490566 39.9555556,15.2603774 C39.9555556,16.0301887 39.3777778,16.6188679 38.6222222,16.6188679 Z" id="Path" fill="#A3C3FF"></path>
                    <path d="M45.8666667,30.3849057 C45.1111111,30.3849057 44.5333333,29.7962264 44.5333333,29.0264151 C44.5333333,28.2566038 45.1111111,27.6679245 45.8666667,27.6679245 L45.8666667,27.6679245 C46.6222222,27.6679245 47.2,28.2566038 47.2,29.0264151 C47.2,29.7509434 46.6222222,30.3849057 45.8666667,30.3849057 Z" id="Path" fill="#A3C3FF"></path>
                    <path d="M36.4,32.2415094 C36.0444444,32.2415094 35.7333333,32.1056604 35.4666667,31.8339623 C34.6666667,31.0188679 33.6,30.5207547 32.4444444,30.4301887 C31.6888889,30.3849057 31.1555556,29.7056604 31.2,28.9811321 C31.2444444,28.2113208 31.9111111,27.6679245 32.6222222,27.7132075 C34.4,27.8490566 36.0888889,28.6188679 37.3333333,29.9320755 C37.8666667,30.4754717 37.8666667,31.3358491 37.3333333,31.8339623 C37.0666667,32.1056604 36.7111111,32.2415094 36.4,32.2415094 Z" id="Path" fill="#0039A5"></path>
                </g>
            </g>
        </g>
    </g>
</svg>