<svg width="24" height="24" viewBox="0 0 24 24" fill="none" xmlns="http://www.w3.org/2000/svg">
<path d="M4 2C3.905 2 3.81561 2.01434 3.72461 2.02734C3.43461 2.14334 3.1397 2.25709 2.8457 2.37109C2.3347 2.73309 2 3.326 2 4V18H4V4H18V2H4ZM8 6C6.895 6 6 6.895 6 8V20C6 21.105 6.895 22 8 22H20C21.105 22 22 21.105 22 20V8C22 6.895 21.105 6 20 6H8ZM17 8.00195C17.768 8.00195 18.5361 8.29391 19.1211 8.87891C19.6881 9.44491 20 10.199 20 11C20 11.801 19.6881 12.5541 19.1211 13.1211L17.2246 15.0176L15.8105 13.6035L17.707 11.707C17.896 11.518 18 11.267 18 11C18 10.733 17.896 10.482 17.707 10.293C17.316 9.90197 16.684 9.90297 16.293 10.293L14.3906 12.1953L15.8047 13.6094L13.8008 15.6133L15.2148 17.0273L13.1191 19.1211C12.5541 19.6871 11.801 20 11 20C10.199 20 9.44491 19.6881 8.87891 19.1211C8.31291 18.5551 8 17.801 8 17C8 16.199 8.31291 15.4459 8.87891 14.8789L10.9727 12.7852L12.3867 14.1992L14.3691 12.2168L12.9551 10.8027L14.8789 8.87891C15.4639 8.29391 16.232 8.00195 17 8.00195ZM12.373 14.2129L10.293 16.293C10.104 16.482 10 16.733 10 17C10 17.267 10.104 17.518 10.293 17.707C10.672 18.086 11.328 18.085 11.707 17.707L13.7871 15.627L12.373 14.2129Z" fill="#fff"/>
</svg>
