<svg width="23" height="24" viewBox="0 0 23 24" fill="none" xmlns="http://www.w3.org/2000/svg">
    <path fill-rule="evenodd" clip-rule="evenodd" d="m16.667 14.718 3.115 3.115c.291.294.291.769-.003 1.062l-.884.885a.747.747 0 0 1-1.06 0l-3.116-3.116a.75.75 0 0 1-.218-.53v-.51a6.47 6.47 0 0 1-4 1.375A6.499 6.499 0 1 1 10.5 4c3.59 0 6.5 2.91 6.5 6.5 0 1.509-.513 2.896-1.375 3.999h.51c.2 0 .39.078.53.219zM6.5 10.499c0 2.213 1.791 4 4 4 2.213 0 4-1.79 4-4 0-2.212-1.79-4-4-4-2.212 0-4 1.791-4 4z" fill="#fff"/>
</svg>
