<svg width="24" height="24" viewBox="0 0 24 24" fill="none" xmlns="http://www.w3.org/2000/svg">
<path d="M5 2C3.895 2 3 2.895 3 4V6C3 7.105 3.895 8 5 8H7C8.105 8 9 7.105 9 6V4C9 2.895 8.105 2 7 2H5ZM11 4V6H21V4H11ZM5 9C3.895 9 3 9.895 3 11V13C3 14.105 3.895 15 5 15H7C8.105 15 9 14.105 9 13V11C9 9.895 8.105 9 7 9H5ZM11 11V13H21V11H11ZM5 16C3.90694 16 3 16.9069 3 18V20C3 21.0931 3.90694 22 5 22H7C8.09306 22 9 21.0931 9 20V18C9 16.9069 8.09306 16 7 16H5ZM5 18H7V20H5V18ZM11 18V20H21V18H11Z" fill="#fff"/>
</svg>
