<svg xmlns="http://www.w3.org/2000/svg" width="48" height="48" viewBox="0 0 48 48">
    <g fill="none" fill-rule="evenodd">
        <path fill="#730B1D" fill-rule="nonzero" d="M3.7 35.363c.19-.23.473-.363.771-.363H43.53c.298 0 .581.133.771.363l3.7 4.484V43c0 .552-.448 1-1 1H1c-.552 0-1-.448-1-1v-3.153l3.7-4.484z" transform="translate(0 2)"/>
        <path fill="#D5B5BB" fill-rule="nonzero" d="M4.471 35H43.53c.298 0 .581.133.771.363l3.7 4.484H0l3.7-4.484c.19-.23.473-.363.771-.363z" transform="translate(0 2)"/>
        <path fill="#730B1D" fill-rule="nonzero" d="M4 35L6 35 2 40 0 40z" transform="translate(0 2)"/>
        <path fill="#730B1D" fill-rule="nonzero" d="M46 35L48 35 44 40 42 40z" transform="translate(0 2) matrix(-1 0 0 1 90 0)"/>
        <path fill="#FFF" fill-rule="nonzero" d="M42 11L6 11 6 33 42 33z" transform="translate(0 2)"/>
        <path fill="#D5B5BB" d="M9.5 14h29c.276 0 .5.224.5.5v3c0 .276-.224.5-.5.5h-29c-.276 0-.5-.224-.5-.5v-3c0-.276.224-.5.5-.5zM9.5 20h29c.276 0 .5.224.5.5v3c0 .276-.224.5-.5.5h-29c-.276 0-.5-.224-.5-.5v-3c0-.276.224-.5.5-.5zM9.5 26h29c.276 0 .5.224.5.5v3c0 .276-.224.5-.5.5h-29c-.276 0-.5-.224-.5-.5v-3c0-.276.224-.5.5-.5z" transform="translate(0 2)"/>
        <path fill="#730B1D" fill-rule="nonzero" d="M42.002 11.206V33H6V12c0-.552.448-1 1-1h37.16c-.094-.654-2.094-1.346-2-2H6c-1.105 0-2 .895-2 2v24h40V12c-1.244.592-.586-.996-1.998-.794z" transform="translate(0 2)"/>
        <g fill-rule="nonzero">
            <path fill="#F83B5B" d="M9 0C4.05 0 0 4.05 0 9s4.05 9 9 9 9-4.05 9-9-4.05-9-9-9z" transform="translate(0 2) translate(30)"/>
            <path fill="#FDD8DE" d="M10.145 13.846c-.058.15-.139.28-.245.39-.108.11-.238.198-.39.26-.152.06-.323.091-.51.091-.189 0-.358-.03-.511-.093-.15-.06-.281-.148-.387-.258-.106-.11-.187-.24-.247-.39-.06-.152-.088-.312-.088-.483 0-.178.03-.342.088-.491.06-.151.142-.281.249-.39.106-.11.237-.199.387-.264.153-.064.322-.097.509-.097s.358.033.51.097c.152.065.282.152.39.261.106.11.189.24.247.391.057.15.088.313.088.491-.002.173-.03.333-.09.485zm-.577-3.071H8.432c-.268 0-.488-.212-.5-.48l-.255-6.174c-.011-.276.203-.51.479-.52l.02-.001h1.65c.275 0 .5.224.5.5l-.001.02-.257 6.176c-.012.267-.232.479-.5.479z" transform="translate(0 2) translate(30)"/>
        </g>
    </g>
</svg>
