<svg xmlns="http://www.w3.org/2000/svg" width="48" height="44" viewBox="0 0 48 44">
    <g fill="none" fill-rule="evenodd">
        <g>
            <path fill="#0039A5" fill-rule="nonzero" d="M3.7 26.363c.19-.23.473-.363.771-.363H43.53c.298 0 .581.133.771.363l3.7 4.484V34c0 .552-.448 1-1 1H1c-.552 0-1-.448-1-1v-3.153l3.7-4.484z" transform="translate(0 9)"/>
            <path fill="#A3C3FF" fill-rule="nonzero" d="M4.471 26H43.53c.298 0 .581.133.771.363l3.7 4.484H0l3.7-4.484c.19-.23.473-.363.771-.363z" transform="translate(0 9)"/>
            <path fill="#0039A5" fill-rule="nonzero" d="M4 26L6 26 2 31 0 31z" transform="translate(0 9)"/>
            <path fill="#0039A5" fill-rule="nonzero" d="M46 26L48 26 44 31 42 31z" transform="translate(0 9) matrix(-1 0 0 1 90 0)"/>
            <path fill="#FFF" fill-rule="nonzero" d="M42 2L6 2 6 24 42 24z" transform="translate(0 9)"/>
            <path fill="#A3C3FF" d="M9.5 5h29c.276 0 .5.224.5.5v3c0 .276-.224.5-.5.5h-29c-.276 0-.5-.224-.5-.5v-3c0-.276.224-.5.5-.5zM9.5 11h29c.276 0 .5.224.5.5v3c0 .276-.224.5-.5.5h-29c-.276 0-.5-.224-.5-.5v-3c0-.276.224-.5.5-.5zM9.5 17h29c.276 0 .5.224.5.5v3c0 .276-.224.5-.5.5h-29c-.276 0-.5-.224-.5-.5v-3c0-.276.224-.5.5-.5z" transform="translate(0 9)"/>
            <path fill="#0039A5" fill-rule="nonzero" d="M42.002 2.206V24H6V3c0-.552.448-1 1-1h37.16c-.094-.654-2.094-1.346-2-2H6C4.895 0 4 .895 4 2v24h40V3c-1.244.592-.586-.996-1.998-.794z" transform="translate(0 9)"/>
        </g>
        <g fill-rule="nonzero">
            <path fill="#1465FF" d="M9 18c4.97 0 9-4.03 9-9s-4.03-9-9-9-9 4.03-9 9 4.03 9 9 9zm-2.07-4.358L3.605 10.29c-.334-.337-.334-.88 0-1.218.332-.334.872-.336 1.206-.004l.004.004 2.472 2.484 5.899-5.945c.331-.334.87-.336 1.204-.004l.007.006c.335.34.334.886-.002 1.225L7.64 13.642c-.195.196-.511.198-.707.003l-.003-.003z" transform="translate(30)"/>
            <path fill="#E6EEFF" d="M6.93 13.642L3.605 10.29c-.334-.337-.334-.88 0-1.218.332-.334.872-.336 1.206-.004l.004.004 2.472 2.484 5.899-5.945c.331-.334.87-.336 1.204-.004l.007.006c.335.34.334.886-.002 1.225L7.64 13.642c-.195.196-.511.198-.707.003l-.003-.003z" transform="translate(30)"/>
        </g>
    </g>
</svg>
