<svg width="81" height="86" fill="none" xmlns="http://www.w3.org/2000/svg">
    <path d="M77.694 79.347H1.653V6.763a3.423 3.423 0 0 1 3.456-3.457h69.128a3.423 3.423 0 0 1 3.457 3.457v72.584z" fill="#fff"/>
    <path fill="#E6EEFF" d="M3.306 14.877h76.041v62.816H3.306z"/>
    <path d="M77.694 14.877H1.653V4.96c0-1.851 1.52-3.306 3.456-3.306h69.128c1.936 0 3.457 1.455 3.457 3.306v9.918z" fill="#1465FF"/>
    <path d="M78.905 79.347c-1.187 0-2.095-.89-2.095-2.052V5.472c0-.752-.628-1.368-1.396-1.368H5.586c-.768 0-1.396.616-1.396 1.368v71.823c0 1.163-.908 2.052-2.095 2.052-1.187 0-2.095-.89-2.095-2.052V5.472C0 2.462 2.514 0 5.586 0h69.828C78.486 0 81 2.462 81 5.472v71.823c0 1.163-.908 2.052-2.095 2.052z" fill="#092661"/>
    <path fill-rule="evenodd" clip-rule="evenodd" d="M44.03 6.612h28.24c1.2 0 2.117 1.075 2.117 2.48s-.918 2.48-2.118 2.48H44.03c-1.2 0-2.118-1.075-2.118-2.48s.918-2.48 2.118-2.48zM20.73 9.092c0-.661.212-1.323.636-1.736a1.953 1.953 0 0 1 2.965 0c.424.413.635 1.075.635 1.736a2.59 2.59 0 0 1-.635 1.736 1.805 1.805 0 0 1-1.483.743c-.564 0-1.059-.248-1.482-.743-.424-.414-.636-1.075-.636-1.736zm-6.424-1.736c-.423.413-.635 1.075-.635 1.736s.212 1.322.635 1.736c.424.495.918.743 1.483.743.565 0 1.13-.248 1.483-.743a2.59 2.59 0 0 0 .635-1.736c0-.661-.212-1.323-.635-1.736a1.953 1.953 0 0 0-2.966 0zM6.612 9.092c0-.661.212-1.323.635-1.736a1.953 1.953 0 0 1 2.965 0c.424.413.636 1.075.636 1.736a2.59 2.59 0 0 1-.636 1.736 1.805 1.805 0 0 1-1.482.743c-.565 0-1.06-.248-1.483-.743-.423-.414-.635-1.075-.635-1.736z" fill="#fff"/>
    <path d="M0 76.04h22.316a2.48 2.48 0 1 1 0 4.96H1.622A1.622 1.622 0 0 1 0 79.378V76.04z" fill="#092661"/>
    <path fill="#fff" d="M35.628 57.77h32.887v25.579H35.628z"/>
    <path fill-rule="evenodd" clip-rule="evenodd" d="M52.071 40.087A12.191 12.191 0 0 0 39.87 52.289v3.328h-2.414a3.995 3.995 0 0 0-3.98 3.98v21.925a3.995 3.995 0 0 0 3.98 3.98h29.233a3.995 3.995 0 0 0 3.98-3.98V59.597a3.995 3.995 0 0 0-3.98-3.98h-2.415v-3.328a12.191 12.191 0 0 0-12.202-12.202zm0 4.306c4.4 0 7.896 3.496 7.896 7.896v3.328H44.176v-3.328c0-4.4 3.495-7.896 7.895-7.896zm-14.29 36.803V59.923h28.58v21.273h-28.58zm14.14-39.868a10.951 10.951 0 0 0-10.812 10.96v4.569-4.568c0-6.013 4.819-10.88 10.811-10.962zM37.454 84.263a2.755 2.755 0 0 1-2.741-2.741V59.597v21.925a2.755 2.755 0 0 0 2.741 2.74zm14.616-41.11a9.085 9.085 0 0 1 9.135 9.136v4.568-4.568a9.085 9.085 0 0 0-9.135-9.135zm-14.616 15.53h29.233a.91.91 0 0 1 .913.914v21.925-21.925a.91.91 0 0 0-.913-.913H37.455z" fill="#092661"/>
    <path d="M48.965 69.157c0-1.937 1.545-3.42 3.563-3.42 2.017 0 3.562 1.483 3.562 3.42a3.182 3.182 0 0 1-1.187 2.494v3.206c0 1.256-1.067 2.28-2.375 2.28-1.309 0-2.376-1.024-2.376-2.28v-3.206a3.182 3.182 0 0 1-1.187-2.494z" fill="#1465FF"/>
</svg>
